<svg width="20" height="18" viewBox="0 0 20 18" fill="none" xmlns="http://www.w3.org/2000/svg">
<path d="M20 8.29143C20.0008 7.478 19.7997 6.67688 19.4145 5.9587C19.0293 5.24052 18.4719 4.62734 17.7913 4.17323C17.1108 3.71912 16.328 3.43802 15.512 3.35472C14.696 3.27143 13.8719 3.38849 13.1123 3.69559C12.3527 4.00269 11.681 4.4904 11.1564 5.1157C10.6317 5.74101 10.2703 6.48471 10.1039 7.28124C9.93755 8.07776 9.97136 8.90265 10.2024 9.68316C10.4334 10.4637 10.8545 11.1758 11.4286 11.7569V16.7912C11.4285 16.912 11.4596 17.0308 11.5188 17.1363C11.5781 17.2419 11.6636 17.3306 11.7672 17.3941C11.8708 17.4577 11.9891 17.4939 12.1108 17.4993C12.2325 17.5047 12.3536 17.4792 12.4625 17.4251L15 16.1661L17.5375 17.4251C17.6464 17.4792 17.7675 17.5047 17.8892 17.4993C18.0109 17.4939 18.1292 17.4577 18.2328 17.3941C18.3364 17.3306 18.4219 17.2419 18.4812 17.1363C18.5404 17.0308 18.5715 16.912 18.5714 16.7912V11.7569C19.4875 10.8322 20.0006 9.58767 20 8.29143ZM15 4.74987C15.7064 4.74987 16.3969 4.95758 16.9842 5.34673C17.5715 5.73589 18.0293 6.289 18.2996 6.93614C18.5699 7.58327 18.6406 8.29536 18.5028 8.98236C18.365 9.66935 18.0249 10.3004 17.5254 10.7957C17.0259 11.291 16.3895 11.6283 15.6967 11.7649C15.004 11.9016 14.2859 11.8315 13.6333 11.5634C12.9807 11.2954 12.4229 10.8414 12.0305 10.259C11.638 9.67661 11.4286 8.99189 11.4286 8.29143C11.4286 7.35215 11.8048 6.45134 12.4746 5.78717C13.1444 5.123 14.0528 4.74987 15 4.74987ZM15.3196 14.7406C15.2204 14.6914 15.111 14.6657 15 14.6657C14.889 14.6657 14.7796 14.6914 14.6804 14.7406L12.8571 15.6455V12.7706C13.5267 13.086 14.2587 13.2496 15 13.2496C15.7413 13.2496 16.4733 13.086 17.1429 12.7706V15.6455L15.3196 14.7406ZM10 13.9579C10 14.1458 9.92474 14.3259 9.79079 14.4588C9.65684 14.5916 9.47515 14.6662 9.28571 14.6662H1.42857C1.04969 14.6662 0.686328 14.517 0.418419 14.2513C0.15051 13.9857 0 13.6253 0 13.2496V1.91662C0 1.54091 0.15051 1.18059 0.418419 0.91492C0.686328 0.649251 1.04969 0.5 1.42857 0.5H17.1429C17.5217 0.5 17.8851 0.649251 18.153 0.91492C18.4209 1.18059 18.5714 1.54091 18.5714 1.91662C18.5714 2.10448 18.4962 2.28464 18.3622 2.41748C18.2283 2.55031 18.0466 2.62494 17.8571 2.62494C17.6677 2.62494 17.486 2.55031 17.3521 2.41748C17.2181 2.28464 17.1429 2.10448 17.1429 1.91662H1.42857V13.2496H9.28571C9.47515 13.2496 9.65684 13.3242 9.79079 13.4571C9.92474 13.5899 10 13.7701 10 13.9579ZM8.57143 8.99975C8.57143 9.1876 8.49617 9.36776 8.36222 9.5006C8.22826 9.63343 8.04658 9.70806 7.85714 9.70806H4.28571C4.09627 9.70806 3.91459 9.63343 3.78064 9.5006C3.64668 9.36776 3.57143 9.1876 3.57143 8.99975C3.57143 8.81189 3.64668 8.63173 3.78064 8.49889C3.91459 8.36606 4.09627 8.29143 4.28571 8.29143H7.85714C8.04658 8.29143 8.22826 8.36606 8.36222 8.49889C8.49617 8.63173 8.57143 8.81189 8.57143 8.99975ZM8.57143 6.1665C8.57143 6.35435 8.49617 6.53451 8.36222 6.66735C8.22826 6.80018 8.04658 6.87481 7.85714 6.87481H4.28571C4.09627 6.87481 3.91459 6.80018 3.78064 6.66735C3.64668 6.53451 3.57143 6.35435 3.57143 6.1665C3.57143 5.97864 3.64668 5.79848 3.78064 5.66565C3.91459 5.53281 4.09627 5.45819 4.28571 5.45819H7.85714C8.04658 5.45819 8.22826 5.53281 8.36222 5.66565C8.49617 5.79848 8.57143 5.97864 8.57143 6.1665Z" fill="black" fill-opacity="0.25"/>
</svg>
