<svg width="167" height="162" viewBox="0 0 167 162" fill="none" xmlns="http://www.w3.org/2000/svg">
<path d="M164.545 121.401H125.474V159.201H164.545V121.401ZM166.612 161.201H123.407V119.402H166.612V161.201Z" fill="#E7E7E7"/>
<path d="M123.407 41.802H84.3387V79.6019H123.407V41.802ZM125.474 81.599H82.2719V39.7997H125.474V81.599Z" fill="#E7E7E7"/>
<path d="M82.2746 81.5996H43.2058V119.402H82.2746V81.5996ZM84.3414 121.402H41.139V79.5998H84.3414V121.402Z" fill="#E7E7E7"/>
<path d="M164.545 81.5996H125.474V119.402H164.545V81.5996ZM166.612 121.402H123.407V79.5998H166.612V121.402Z" fill="#E7E7E7"/>
<path d="M164.545 41.802H125.474V79.6019H164.545V41.802ZM166.612 81.599H123.407V39.7997H166.612V81.599Z" fill="#E7E7E7"/>
<path d="M164.545 1.9997H125.474V39.8023H164.545V1.9997ZM166.612 41.802H123.407V-7.62939e-06H166.612V41.802Z" fill="#E7E7E7"/>
<path d="M123.407 121.401H84.3387V159.201H123.407V121.401ZM125.474 161.201H82.2719V119.402H125.474V161.201Z" fill="#E7E7E7"/>
<path d="M82.2746 121.401H43.2058V159.201H82.2746V121.401ZM84.3414 161.201H41.139V119.402H84.3414V161.201Z" fill="#E7E7E7"/>
<path d="M41.1385 121.401H2.06684V159.201H41.1385V121.401ZM43.2053 161.201H0V119.402H43.2053V161.201Z" fill="#E7E7E7"/>
</svg>
