<svg width="167" height="162" viewBox="0 0 167 162" fill="none" xmlns="http://www.w3.org/2000/svg">
<path d="M2.06687 39.7996L41.1385 39.7996L41.1385 1.99971L2.06687 1.99971L2.06687 39.7996ZM3.43323e-05 -3.65445e-06L43.2053 0L43.2053 41.7993L3.05554e-05 41.7993L3.43323e-05 -3.65445e-06Z" fill="#E7E7E7"/>
<path d="M43.2046 119.399L82.2734 119.399L82.2734 81.5989L43.2046 81.5988L43.2046 119.399ZM41.1378 79.6018L84.3402 79.6018L84.3402 121.401L41.1378 121.401L41.1378 79.6018Z" fill="#E7E7E7"/>
<path d="M84.3376 79.6012L123.406 79.6012L123.406 41.7987L84.3376 41.7987L84.3376 79.6012ZM82.2707 39.7989L125.473 39.799L125.473 81.6009L82.2707 81.6009L82.2707 39.7989Z" fill="#E7E7E7"/>
<path d="M2.06687 79.6012L41.1385 79.6012L41.1385 41.7987L2.06687 41.7987L2.06687 79.6012ZM3.43323e-05 39.7989L43.2053 39.799L43.2053 81.6009L3.05552e-05 81.6009L3.43323e-05 39.7989Z" fill="#E7E7E7"/>
<path d="M2.06687 119.399L41.1385 119.399L41.1385 81.5989L2.06687 81.5988L2.06687 119.399ZM3.43323e-05 79.6018L43.2053 79.6018L43.2053 121.401L3.05554e-05 121.401L3.43323e-05 79.6018Z" fill="#E7E7E7"/>
<path d="M2.06687 159.201L41.1385 159.201L41.1385 121.399L2.06687 121.399L2.06687 159.201ZM3.43323e-05 119.399L43.2053 119.399L43.2053 161.201L3.05552e-05 161.201L3.43323e-05 119.399Z" fill="#E7E7E7"/>
<path d="M43.2046 39.7996L82.2734 39.7996L82.2734 1.99971L43.2046 1.99971L43.2046 39.7996ZM41.1378 -3.65421e-06L84.3402 0L84.3402 41.7993L41.1378 41.7993L41.1378 -3.65421e-06Z" fill="#E7E7E7"/>
<path d="M84.3376 39.7996L123.406 39.7996L123.406 1.99971L84.3376 1.99971L84.3376 39.7996ZM82.2707 -3.65421e-06L125.473 0L125.473 41.7993L82.2707 41.7993L82.2707 -3.65421e-06Z" fill="#E7E7E7"/>
<path d="M125.474 39.7996L164.545 39.7996L164.545 1.99971L125.474 1.99971L125.474 39.7996ZM123.407 -3.65445e-06L166.612 0L166.612 41.7993L123.407 41.7993L123.407 -3.65445e-06Z" fill="#E7E7E7"/>
</svg>
