<svg width="183" height="60" viewBox="0 0 183 60" fill="none" xmlns="http://www.w3.org/2000/svg">
<path d="M62.3739 20.3312L47.2344 5.55321C43.5666 1.98027 38.7708 0.0422833 33.975 0C29.165 0.0422833 24.3763 1.98027 20.7085 5.55321L5.56904 20.3312C-1.85879 27.5828 -1.85879 39.3376 5.56904 46.5891L7.47744 48.4496C10.8827 51.7689 28.5975 59.3587 30.1866 60V31.3037C30.1866 30.4299 29.5694 29.6335 28.7393 29.3094L19.2967 25.6448C18.5092 26.3002 17.4947 26.6949 16.388 26.6949C13.8837 26.6949 11.8618 24.6794 11.8618 22.1987C11.8618 19.7181 13.8908 17.7026 16.388 17.7026C18.7008 17.7026 20.6092 19.4362 20.8788 21.649L30.0731 25.2149C31.3288 25.7012 32.6413 25.9549 33.9679 25.969C35.2875 25.9478 36.6141 25.7012 37.8627 25.2149L47.0642 21.649C47.3409 19.4292 49.2422 17.7026 51.5549 17.7026C54.0593 17.7026 56.0812 19.7181 56.0812 22.1987C56.0812 24.6794 54.0522 26.6949 51.5549 26.6949C50.4411 26.6949 49.4266 26.3002 48.6462 25.6448L39.1965 29.3094C38.3523 29.6406 37.7492 30.4228 37.7492 31.3037V60C39.3384 59.3587 57.0602 51.7759 60.4584 48.4496L62.3668 46.5821C69.8159 39.3305 69.8159 27.5828 62.3881 20.3312M33.9892 19.6476C30.967 19.6476 28.5194 17.2093 28.5194 14.2142C28.5194 11.2192 30.9741 8.78083 33.9892 8.78083C37.0043 8.78083 39.4519 11.2192 39.4519 14.2142C39.4519 17.2093 36.9972 19.6476 33.9892 19.6476Z" fill="#7DBA28"/>
<path d="M90.1131 6.96265H86.9561V26.5187H90.1131V6.96265Z" fill="white"/>
<path d="M98.3142 26.5187H101.457V9.71106L107.281 9.75334V6.96265H92.5322V9.75334L98.3142 9.71106V26.5187Z" fill="white"/>
<path d="M119.803 19.4857H123.244C124.294 19.4857 125.245 19.3236 126.089 18.9924C126.933 18.6611 127.65 18.2172 128.245 17.6393C128.841 17.0755 129.303 16.399 129.622 15.6308C129.955 14.8768 130.111 14.0523 130.111 13.1573C130.111 12.2623 129.962 11.48 129.65 10.7119C129.345 9.95783 128.905 9.29539 128.338 8.73161C127.77 8.17488 127.068 7.73091 126.245 7.42083C125.422 7.08961 124.471 6.93457 123.428 6.93457H116.653V26.4906H119.81V19.4786H119.803V19.4857ZM119.796 9.75346H123.414C124.571 9.75346 125.443 10.0565 126.046 10.6766C126.649 11.2968 126.954 12.1284 126.954 13.1784C126.954 14.2848 126.621 15.1375 125.961 15.7718C125.308 16.399 124.4 16.7091 123.237 16.7091H119.796V9.7605V9.75346Z" fill="white"/>
<path d="M140.221 6.96265H137.007L129.828 26.5187H133.105L134.794 21.7054H142.413L144.13 26.5187H147.407L140.221 6.96265ZM135.766 18.9922L137.227 14.8414L138.575 10.2114H138.632L139.98 14.8414L141.427 18.9922H135.758H135.766Z" fill="white"/>
<path d="M162.753 16.4765C163.533 15.4757 163.916 14.3059 163.916 12.9458C163.916 12.1072 163.767 11.332 163.455 10.6132C163.15 9.89435 162.71 9.25306 162.142 8.71747C161.575 8.18188 160.858 7.74495 160 7.44192C159.142 7.13889 158.191 6.97681 157.127 6.97681H149.919V26.5328H153.076V19.0557H156.502L160.88 26.5328H164.257L159.617 18.5765C160.922 18.1678 161.958 17.4631 162.738 16.4765H162.753ZM153.083 16.2509V9.75341H157.148C158.354 9.75341 159.248 10.0423 159.858 10.6273C160.461 11.2122 160.766 11.9874 160.766 12.9458C160.766 13.9042 160.454 14.7499 159.787 15.3559C159.134 15.955 158.226 16.2509 157.063 16.2509H153.09H153.083Z" fill="white"/>
<path d="M170.464 6.96265H167.307V26.5187H170.464V6.96265Z" fill="white"/>
<path d="M183 26.5187L174.465 16.1241L182.737 6.96973H179.112L171.578 15.2854V17.0825L179.254 26.5187H183Z" fill="white"/>
<path d="M179.098 30.8105H90.858C88.703 30.8105 86.9561 32.5459 86.9561 34.6865V49.1826C86.9561 51.3233 88.703 53.0586 90.858 53.0586H179.098C181.253 53.0586 183 51.3233 183 49.1826V34.6865C183 32.5459 181.253 30.8105 179.098 30.8105Z" fill="#7DBA28"/>
<path d="M100.89 48.6118H98.6973L92.8941 42.2059V48.6118H91.1063V35.2573H92.8941V41.2827L98.4987 35.2573H100.691L94.7528 41.7408L100.882 48.6048L100.89 48.6118Z" fill="white"/>
<path d="M111.375 35.2573H113.142V48.6118H111.375V42.6005H104.848V48.6118H103.06V35.2573H104.848V40.9233H111.375V35.2573Z" fill="white"/>
<path d="M127.791 46.836C126.436 48.182 124.783 48.8585 122.84 48.8585C120.896 48.8585 119.25 48.182 117.902 46.836C116.554 45.49 115.887 43.855 115.887 41.9311C115.887 40.0072 116.561 38.3582 117.902 37.0192C119.25 35.6802 120.889 35.0107 122.84 35.0107C124.791 35.0107 126.436 35.6802 127.784 37.0192C129.132 38.3652 129.813 40.0002 129.813 41.9311C129.813 43.862 129.139 45.4829 127.799 46.836H127.791ZM119.151 45.6168C120.137 46.6246 121.364 47.1249 122.84 47.1249C124.315 47.1249 125.543 46.6246 126.536 45.6238C127.529 44.6231 128.026 43.3969 128.026 41.9311C128.026 40.4653 127.529 39.2179 126.536 38.2172C125.543 37.2165 124.308 36.7232 122.84 36.7232C121.371 36.7232 120.137 37.2236 119.143 38.2172C118.15 39.2179 117.654 40.4512 117.654 41.9311C117.654 43.411 118.15 44.6231 119.151 45.6098V45.6168Z" fill="white"/>
<path d="M140.505 48.6118L137.49 43.5026H134.318V48.6118H132.531V35.2573H137.908C139.057 35.2573 140.043 35.659 140.866 36.4694C141.689 37.2799 142.094 38.2524 142.094 39.4011C142.094 40.2679 141.831 41.0572 141.313 41.769C140.795 42.4807 140.129 42.9811 139.306 43.2771L142.477 48.6188H140.498L140.505 48.6118ZM134.318 36.9205V41.9028H137.908C138.575 41.9028 139.142 41.6562 139.611 41.1699C140.079 40.6837 140.313 40.0917 140.313 39.4081C140.313 38.7246 140.079 38.1396 139.611 37.6534C139.142 37.1671 138.575 36.9275 137.908 36.9275H134.318V36.9205Z" fill="white"/>
<path d="M146.634 46.9346H152.877V48.6118H144.846V35.2573H152.778V36.9346H146.634V41.036H152.303V42.6992H146.634V46.9346Z" fill="white"/>
<path d="M157.02 46.9346H163.682V48.6118H154.906V47.0685L161.398 36.9416H155.077V35.2644H163.526V36.7936L157.013 46.9416L157.02 46.9346Z" fill="white"/>
<path d="M178.836 35.2573V48.6118H177.069V38.1748L172.671 45.4405H172.444L168.045 38.1889V48.6047H166.257V35.2502H168.272L172.557 42.3116L176.821 35.2502H178.836V35.2573Z" fill="white"/>
</svg>
