<svg width="40" height="35" viewBox="0 0 40 35" fill="none" xmlns="http://www.w3.org/2000/svg">
<path d="M6.00037 15.6667V32.8361C6.00037 33.1448 6.13382 33.4409 6.37136 33.6591C6.60891 33.8774 6.93109 34.0001 7.26703 34.0001H14.867V24.1059C14.867 23.6428 15.0672 23.1987 15.4235 22.8713C15.7798 22.5438 16.2631 22.3599 16.767 22.3599H23.1004C23.6043 22.3599 24.0875 22.5438 24.4439 22.8713C24.8002 23.1987 25.0004 23.6428 25.0004 24.1059V34.0001H32.6004C32.9363 34.0001 33.2585 33.8774 33.496 33.6591C33.7336 33.4409 33.867 33.1448 33.867 32.8361V15.6667" stroke="black" stroke-opacity="0.5" stroke-width="1.5" stroke-linecap="round" stroke-linejoin="round"/>
<path d="M39.0007 18L21.0262 1.31595C20.6283 0.897067 19.698 0.892307 19.2929 1.31595L1.00073 17.5M31.6191 10.5V2.26795H27.7992V7" stroke="black" stroke-opacity="0.5" stroke-width="1.5" stroke-linecap="round" stroke-linejoin="round"/>
</svg>
