<svg width="253" height="52" viewBox="0 0 253 52" fill="none" xmlns="http://www.w3.org/2000/svg">
<path d="M22.8289 18.288C21.2929 18.288 19.9729 17.928 18.8689 17.208C17.7809 16.472 17.0209 15.464 16.5889 14.184L18.0289 13.344C18.3329 14.4 18.8929 15.216 19.7089 15.792C20.5409 16.368 21.5889 16.656 22.8529 16.656C24.0849 16.656 25.0529 16.384 25.7569 15.84C26.4609 15.296 26.8129 14.56 26.8129 13.632C26.8129 12.752 26.4929 12.088 25.8529 11.64C25.2289 11.192 24.1729 10.728 22.6849 10.248C20.9089 9.656 19.7569 9.192 19.2289 8.856C17.9489 8.088 17.3089 6.976 17.3089 5.52C17.3089 4.096 17.8049 2.976 18.7969 2.16C19.7729 1.328 20.9969 0.912 22.4689 0.912C23.7329 0.912 24.8529 1.248 25.8289 1.92C26.8049 2.576 27.5329 3.448 28.0129 4.536L26.5969 5.328C25.8289 3.472 24.4529 2.544 22.4689 2.544C21.4129 2.544 20.5649 2.808 19.9249 3.336C19.3009 3.848 18.9889 4.552 18.9889 5.448C18.9889 6.296 19.2769 6.92 19.8529 7.32C20.4449 7.736 21.3969 8.16 22.7089 8.592L24.0049 9.048C24.2769 9.128 24.6609 9.272 25.1569 9.48C25.7009 9.688 26.0769 9.864 26.2849 10.008C27.1329 10.52 27.6689 10.992 27.8929 11.424C28.2929 12.064 28.4929 12.784 28.4929 13.584C28.4929 15.008 27.9729 16.152 26.9329 17.016C25.8929 17.864 24.5249 18.288 22.8289 18.288ZM36.9154 5.712C38.7074 5.712 40.1394 6.344 41.2114 7.608C42.3154 8.856 42.8674 10.336 42.8674 12.048C42.8674 12.128 42.8514 12.376 42.8194 12.792H32.2834C32.4434 13.992 32.9554 14.952 33.8194 15.672C34.6834 16.392 35.7634 16.752 37.0594 16.752C38.8834 16.752 40.1714 16.072 40.9234 14.712L42.3154 15.528C41.7874 16.392 41.0594 17.072 40.1314 17.568C39.2194 18.048 38.1874 18.288 37.0354 18.288C35.1474 18.288 33.6114 17.696 32.4274 16.512C31.2434 15.328 30.6514 13.824 30.6514 12C30.6514 10.192 31.2354 8.696 32.4034 7.512C33.5714 6.312 35.0754 5.712 36.9154 5.712ZM36.9154 7.248C35.6674 7.248 34.6194 7.616 33.7714 8.352C32.9394 9.088 32.4434 10.056 32.2834 11.256H41.2354C41.0594 9.976 40.5714 8.992 39.7714 8.304C38.9394 7.6 37.9874 7.248 36.9154 7.248ZM51.003 5.712C52.443 5.712 53.587 6.16 54.435 7.056C55.283 7.936 55.707 9.128 55.707 10.632V18H54.123V10.632C54.123 9.56 53.835 8.728 53.259 8.136C52.699 7.544 51.899 7.248 50.859 7.248C49.659 7.248 48.707 7.624 48.003 8.376C47.315 9.128 46.971 10.24 46.971 11.712V18H45.387V6H46.971V7.872C47.867 6.432 49.211 5.712 51.003 5.712ZM60.7138 2.304C60.7138 2.624 60.6018 2.896 60.3778 3.12C60.1538 3.344 59.8818 3.456 59.5618 3.456C59.2418 3.456 58.9698 3.344 58.7458 3.12C58.5218 2.896 58.4098 2.624 58.4098 2.304C58.4098 1.984 58.5218 1.712 58.7458 1.488C58.9698 1.264 59.2418 1.152 59.5618 1.152C59.8818 1.152 60.1538 1.264 60.3778 1.488C60.6018 1.712 60.7138 1.984 60.7138 2.304ZM60.3538 18H58.7698V6H60.3538V18ZM69.3312 5.712C70.7712 5.712 71.9152 6.16 72.7632 7.056C73.6112 7.936 74.0352 9.128 74.0352 10.632V18H72.4512V10.632C72.4512 9.56 72.1632 8.728 71.5872 8.136C71.0272 7.544 70.2272 7.248 69.1872 7.248C67.9872 7.248 67.0352 7.624 66.3312 8.376C65.6432 9.128 65.2992 10.24 65.2992 11.712V18H63.7152V6H65.2992V7.872C66.1952 6.432 67.5392 5.712 69.3312 5.712ZM87.418 8.352V6H89.002V17.52C89.002 19.248 88.41 20.608 87.226 21.6C86.042 22.592 84.626 23.088 82.978 23.088C80.178 23.088 78.282 22.112 77.29 20.16L78.682 19.368C79.402 20.824 80.834 21.552 82.978 21.552C84.354 21.552 85.434 21.192 86.218 20.472C87.018 19.752 87.418 18.768 87.418 17.52V15.648C86.314 17.408 84.698 18.288 82.57 18.288C80.858 18.288 79.394 17.68 78.178 16.464C76.978 15.248 76.378 13.76 76.378 12C76.378 10.24 76.978 8.752 78.178 7.536C79.394 6.32 80.858 5.712 82.57 5.712C84.698 5.712 86.314 6.592 87.418 8.352ZM79.33 15.384C80.242 16.296 81.362 16.752 82.69 16.752C84.018 16.752 85.138 16.296 86.05 15.384C86.962 14.44 87.418 13.312 87.418 12C87.418 10.672 86.962 9.552 86.05 8.64C85.138 7.712 84.018 7.248 82.69 7.248C81.362 7.248 80.242 7.712 79.33 8.64C78.418 9.552 77.962 10.672 77.962 12C77.962 13.312 78.418 14.44 79.33 15.384ZM98.5958 18V1.2H100.276V18H98.5958ZM102.687 1.2H114.687V2.784H109.527V18H107.847V2.784H102.687V1.2ZM126.112 11.76L132.544 18H130.432L124.432 12.216V18H122.848V1.2H124.432V11.304L130.144 6H132.304L126.112 11.76ZM143.832 8.352V6H145.416V18H143.832V15.648C142.728 17.408 141.112 18.288 138.984 18.288C137.272 18.288 135.808 17.68 134.592 16.464C133.392 15.248 132.792 13.76 132.792 12C132.792 10.24 133.392 8.752 134.592 7.536C135.808 6.32 137.272 5.712 138.984 5.712C141.112 5.712 142.728 6.592 143.832 8.352ZM135.744 15.384C136.656 16.296 137.776 16.752 139.104 16.752C140.432 16.752 141.552 16.296 142.464 15.384C143.376 14.44 143.832 13.312 143.832 12C143.832 10.672 143.376 9.552 142.464 8.64C141.552 7.712 140.432 7.248 139.104 7.248C137.776 7.248 136.656 7.712 135.744 8.64C134.832 9.552 134.376 10.672 134.376 12C134.376 13.312 134.832 14.44 135.744 15.384ZM150.354 6V7.992C151.09 6.536 152.354 5.808 154.146 5.808V7.344C152.994 7.344 152.074 7.68 151.386 8.352C150.698 9.008 150.354 10 150.354 11.328V18H148.77V6H150.354ZM161.303 16.056L165.191 6H166.871L161.735 19.104C161.255 20.32 160.583 21.256 159.719 21.912C158.871 22.584 157.927 22.88 156.887 22.8V21.312C158.327 21.488 159.423 20.656 160.175 18.816L160.487 18.072L155.111 6H156.791L161.303 16.056ZM173.861 5.712C175.653 5.712 177.085 6.344 178.157 7.608C179.261 8.856 179.813 10.336 179.813 12.048C179.813 12.128 179.797 12.376 179.765 12.792H169.229C169.389 13.992 169.901 14.952 170.765 15.672C171.629 16.392 172.709 16.752 174.005 16.752C175.829 16.752 177.117 16.072 177.869 14.712L179.261 15.528C178.733 16.392 178.005 17.072 177.077 17.568C176.165 18.048 175.133 18.288 173.981 18.288C172.093 18.288 170.557 17.696 169.373 16.512C168.189 15.328 167.597 13.824 167.597 12C167.597 10.192 168.181 8.696 169.349 7.512C170.517 6.312 172.021 5.712 173.861 5.712ZM173.861 7.248C172.613 7.248 171.565 7.616 170.717 8.352C169.885 9.088 169.389 10.056 169.229 11.256H178.181C178.005 9.976 177.517 8.992 176.717 8.304C175.885 7.6 174.933 7.248 173.861 7.248ZM183.916 6V7.992C184.652 6.536 185.916 5.808 187.708 5.808V7.344C186.556 7.344 185.636 7.68 184.948 8.352C184.26 9.008 183.916 10 183.916 11.328V18H182.332V6H183.916ZM199.473 8.352V6H201.057V18H199.473V15.648C198.369 17.408 196.753 18.288 194.625 18.288C192.913 18.288 191.449 17.68 190.233 16.464C189.033 15.248 188.433 13.76 188.433 12C188.433 10.24 189.033 8.752 190.233 7.536C191.449 6.32 192.913 5.712 194.625 5.712C196.753 5.712 198.369 6.592 199.473 8.352ZM191.385 15.384C192.297 16.296 193.417 16.752 194.745 16.752C196.073 16.752 197.193 16.296 198.105 15.384C199.017 14.44 199.473 13.312 199.473 12C199.473 10.672 199.017 9.552 198.105 8.64C197.193 7.712 196.073 7.248 194.745 7.248C193.417 7.248 192.297 7.712 191.385 8.64C190.473 9.552 190.017 10.672 190.017 12C190.017 13.312 190.473 14.44 191.385 15.384ZM210.026 5.712C211.466 5.712 212.61 6.16 213.458 7.056C214.306 7.936 214.73 9.128 214.73 10.632V18H213.146V10.632C213.146 9.56 212.858 8.728 212.282 8.136C211.722 7.544 210.922 7.248 209.882 7.248C208.682 7.248 207.73 7.624 207.026 8.376C206.338 9.128 205.994 10.24 205.994 11.712V18H204.41V6H205.994V7.872C206.89 6.432 208.234 5.712 210.026 5.712ZM228.113 8.352V6H229.697V17.52C229.697 19.248 229.105 20.608 227.921 21.6C226.737 22.592 225.321 23.088 223.673 23.088C220.873 23.088 218.977 22.112 217.985 20.16L219.377 19.368C220.097 20.824 221.529 21.552 223.673 21.552C225.049 21.552 226.129 21.192 226.913 20.472C227.713 19.752 228.113 18.768 228.113 17.52V15.648C227.009 17.408 225.393 18.288 223.265 18.288C221.553 18.288 220.089 17.68 218.873 16.464C217.673 15.248 217.073 13.76 217.073 12C217.073 10.24 217.673 8.752 218.873 7.536C220.089 6.32 221.553 5.712 223.265 5.712C225.393 5.712 227.009 6.592 228.113 8.352ZM220.025 15.384C220.937 16.296 222.057 16.752 223.385 16.752C224.713 16.752 225.833 16.296 226.745 15.384C227.657 14.44 228.113 13.312 228.113 12C228.113 10.672 227.657 9.552 226.745 8.64C225.833 7.712 224.713 7.248 223.385 7.248C222.057 7.248 220.937 7.712 220.025 8.64C219.113 9.552 218.657 10.672 218.657 12C218.657 13.312 219.113 14.44 220.025 15.384Z" fill="#7DBA28"/>
<path d="M2.24441 38.144C2.24441 39.072 3.06841 39.752 4.71641 40.184C5.18041 40.296 5.48441 40.376 5.62841 40.424C5.77241 40.456 6.05241 40.544 6.46841 40.688C6.90041 40.816 7.19641 40.928 7.35641 41.024C7.53241 41.12 7.77241 41.272 8.07641 41.48C8.38041 41.672 8.59641 41.872 8.72441 42.08C8.85241 42.272 8.97241 42.528 9.08441 42.848C9.19641 43.152 9.25241 43.48 9.25241 43.832C9.25241 44.856 8.84441 45.688 8.02841 46.328C7.24441 46.968 6.20441 47.288 4.90841 47.288C3.78841 47.288 2.82041 47.04 2.00441 46.544C1.18841 46.032 0.612406 45.36 0.276406 44.528L1.62041 43.736C1.84441 44.36 2.24441 44.856 2.82041 45.224C3.41241 45.576 4.10841 45.752 4.90841 45.752C5.72441 45.752 6.38841 45.592 6.90041 45.272C7.41241 44.952 7.66841 44.472 7.66841 43.832C7.66841 42.904 6.84441 42.224 5.19641 41.792C4.73241 41.68 4.42841 41.608 4.28441 41.576C4.14041 41.528 3.85241 41.44 3.42041 41.312C3.00441 41.168 2.70841 41.048 2.53241 40.952C2.37241 40.856 2.14041 40.712 1.83641 40.52C1.53241 40.312 1.31641 40.112 1.18841 39.92C1.06041 39.712 0.940406 39.456 0.828406 39.152C0.716406 38.832 0.660406 38.496 0.660406 38.144C0.660406 37.168 1.04441 36.352 1.81241 35.696C2.61241 35.04 3.59641 34.712 4.76441 34.712C5.72441 34.712 6.57241 34.928 7.30841 35.36C8.06041 35.792 8.61241 36.392 8.96441 37.16L7.64441 37.928C7.19641 36.808 6.23641 36.248 4.76441 36.248C4.04441 36.248 3.44441 36.416 2.96441 36.752C2.48441 37.088 2.24441 37.552 2.24441 38.144ZM17.3937 34.712C18.8337 34.712 19.9777 35.16 20.8257 36.056C21.6737 36.936 22.0977 38.128 22.0977 39.632V47H20.5137V39.632C20.5137 38.56 20.2257 37.728 19.6497 37.136C19.0897 36.544 18.2897 36.248 17.2497 36.248C16.0497 36.248 15.0977 36.624 14.3937 37.376C13.7057 38.128 13.3617 39.24 13.3617 40.712V47H11.7777V30.2H13.3617V36.872C14.2577 35.432 15.6017 34.712 17.3937 34.712ZM33.6085 41.288V35H35.1925V47H33.6085V45.128C32.7125 46.568 31.3685 47.288 29.5765 47.288C28.1365 47.288 26.9925 46.848 26.1445 45.968C25.2965 45.072 24.8725 43.872 24.8725 42.368V35H26.4565V42.368C26.4565 43.44 26.7365 44.272 27.2965 44.864C27.8725 45.456 28.6805 45.752 29.7205 45.752C30.9205 45.752 31.8645 45.376 32.5525 44.624C33.2565 43.872 33.6085 42.76 33.6085 41.288ZM49.2953 45.056L53.1833 35H54.8633L49.7273 48.104C49.2473 49.32 48.5753 50.256 47.7113 50.912C46.8633 51.584 45.9193 51.88 44.8793 51.8V50.312C46.3193 50.488 47.4153 49.656 48.1673 47.816L48.4793 47.072L43.1033 35H44.7833L49.2953 45.056ZM61.8529 34.712C63.6449 34.712 65.0769 35.344 66.1489 36.608C67.2529 37.856 67.8049 39.336 67.8049 41.048C67.8049 41.128 67.7889 41.376 67.7569 41.792H57.2209C57.3809 42.992 57.8929 43.952 58.7569 44.672C59.6209 45.392 60.7009 45.752 61.9969 45.752C63.8209 45.752 65.1089 45.072 65.8609 43.712L67.2529 44.528C66.7249 45.392 65.9969 46.072 65.0689 46.568C64.1569 47.048 63.1249 47.288 61.9729 47.288C60.0849 47.288 58.5489 46.696 57.3649 45.512C56.1809 44.328 55.5889 42.824 55.5889 41C55.5889 39.192 56.1729 37.696 57.3409 36.512C58.5089 35.312 60.0129 34.712 61.8529 34.712ZM61.8529 36.248C60.6049 36.248 59.5569 36.616 58.7089 37.352C57.8769 38.088 57.3809 39.056 57.2209 40.256H66.1729C65.9969 38.976 65.5089 37.992 64.7089 37.304C63.8769 36.6 62.9249 36.248 61.8529 36.248ZM71.9085 35V36.992C72.6445 35.536 73.9085 34.808 75.7005 34.808V36.344C74.5485 36.344 73.6285 36.68 72.9405 37.352C72.2525 38.008 71.9085 39 71.9085 40.328V47H70.3245V35H71.9085ZM87.4648 37.352V30.2H89.0488V47H87.4648V44.648C86.3608 46.408 84.7448 47.288 82.6168 47.288C80.9048 47.288 79.4408 46.68 78.2248 45.464C77.0248 44.248 76.4248 42.76 76.4248 41C76.4248 39.24 77.0248 37.752 78.2248 36.536C79.4408 35.32 80.9048 34.712 82.6168 34.712C84.7448 34.712 86.3608 35.592 87.4648 37.352ZM79.3768 44.384C80.2888 45.296 81.4088 45.752 82.7368 45.752C84.0648 45.752 85.1848 45.296 86.0968 44.384C87.0088 43.44 87.4648 42.312 87.4648 41C87.4648 39.672 87.0088 38.552 86.0968 37.64C85.1848 36.712 84.0648 36.248 82.7368 36.248C81.4088 36.248 80.2888 36.712 79.3768 37.64C78.4648 38.552 78.0088 39.672 78.0088 41C78.0088 42.312 78.4648 43.44 79.3768 44.384ZM102.723 37.352V35H104.307V47H102.723V44.648C101.619 46.408 100.003 47.288 97.8747 47.288C96.1627 47.288 94.6987 46.68 93.4827 45.464C92.2827 44.248 91.6827 42.76 91.6827 41C91.6827 39.24 92.2827 37.752 93.4827 36.536C94.6987 35.32 96.1627 34.712 97.8747 34.712C100.003 34.712 101.619 35.592 102.723 37.352ZM94.6347 44.384C95.5467 45.296 96.6667 45.752 97.9947 45.752C99.3227 45.752 100.443 45.296 101.355 44.384C102.267 43.44 102.723 42.312 102.723 41C102.723 39.672 102.267 38.552 101.355 37.64C100.443 36.712 99.3227 36.248 97.9947 36.248C96.6667 36.248 95.5467 36.712 94.6347 37.64C93.7227 38.552 93.2667 39.672 93.2667 41C93.2667 42.312 93.7227 43.44 94.6347 44.384ZM113.276 34.712C114.716 34.712 115.86 35.16 116.708 36.056C117.556 36.936 117.98 38.128 117.98 39.632V47H116.396V39.632C116.396 38.56 116.108 37.728 115.532 37.136C114.972 36.544 114.172 36.248 113.132 36.248C111.932 36.248 110.98 36.624 110.276 37.376C109.588 38.128 109.244 39.24 109.244 40.712V47H107.66V35H109.244V36.872C110.14 35.432 111.484 34.712 113.276 34.712ZM133.475 34.712C135.187 34.712 136.643 35.32 137.843 36.536C139.059 37.752 139.667 39.24 139.667 41C139.667 42.76 139.059 44.248 137.843 45.464C136.643 46.68 135.187 47.288 133.475 47.288C131.347 47.288 129.731 46.408 128.627 44.648V47H127.043V30.2H128.627V37.352C129.731 35.592 131.347 34.712 133.475 34.712ZM129.995 44.384C130.907 45.296 132.027 45.752 133.355 45.752C134.683 45.752 135.803 45.296 136.715 44.384C137.627 43.44 138.083 42.312 138.083 41C138.083 39.672 137.627 38.552 136.715 37.64C135.803 36.712 134.683 36.248 133.355 36.248C132.027 36.248 130.907 36.712 129.995 37.64C129.083 38.552 128.627 39.672 128.627 41C128.627 42.312 129.083 43.44 129.995 44.384ZM152.357 45.488C151.125 46.688 149.637 47.288 147.893 47.288C146.117 47.288 144.621 46.688 143.405 45.488C142.189 44.272 141.581 42.776 141.581 41C141.581 39.224 142.189 37.736 143.405 36.536C144.621 35.32 146.117 34.712 147.893 34.712C149.653 34.712 151.141 35.32 152.357 36.536C153.589 37.736 154.205 39.224 154.205 41C154.205 42.76 153.589 44.256 152.357 45.488ZM144.533 44.384C145.445 45.296 146.565 45.752 147.893 45.752C149.221 45.752 150.341 45.296 151.253 44.384C152.165 43.44 152.621 42.312 152.621 41C152.621 39.672 152.165 38.552 151.253 37.64C150.341 36.712 149.221 36.248 147.893 36.248C146.565 36.248 145.445 36.712 144.533 37.64C143.621 38.552 143.165 39.672 143.165 41C143.165 42.312 143.621 43.44 144.533 44.384ZM157.869 38.144C157.869 39.072 158.693 39.752 160.341 40.184C160.805 40.296 161.109 40.376 161.253 40.424C161.397 40.456 161.677 40.544 162.093 40.688C162.525 40.816 162.821 40.928 162.981 41.024C163.157 41.12 163.397 41.272 163.701 41.48C164.005 41.672 164.221 41.872 164.349 42.08C164.477 42.272 164.597 42.528 164.709 42.848C164.821 43.152 164.877 43.48 164.877 43.832C164.877 44.856 164.469 45.688 163.653 46.328C162.869 46.968 161.829 47.288 160.533 47.288C159.413 47.288 158.445 47.04 157.629 46.544C156.813 46.032 156.237 45.36 155.901 44.528L157.245 43.736C157.469 44.36 157.869 44.856 158.445 45.224C159.037 45.576 159.733 45.752 160.533 45.752C161.349 45.752 162.013 45.592 162.525 45.272C163.037 44.952 163.293 44.472 163.293 43.832C163.293 42.904 162.469 42.224 160.821 41.792C160.357 41.68 160.053 41.608 159.909 41.576C159.765 41.528 159.477 41.44 159.045 41.312C158.629 41.168 158.333 41.048 158.157 40.952C157.997 40.856 157.765 40.712 157.461 40.52C157.157 40.312 156.941 40.112 156.813 39.92C156.685 39.712 156.565 39.456 156.453 39.152C156.341 38.832 156.285 38.496 156.285 38.144C156.285 37.168 156.669 36.352 157.437 35.696C158.237 35.04 159.221 34.712 160.389 34.712C161.349 34.712 162.197 34.928 162.933 35.36C163.685 35.792 164.237 36.392 164.589 37.16L163.269 37.928C162.821 36.808 161.861 36.248 160.389 36.248C159.669 36.248 159.069 36.416 158.589 36.752C158.109 37.088 157.869 37.552 157.869 38.144ZM173.019 34.712C174.459 34.712 175.603 35.16 176.451 36.056C177.299 36.936 177.723 38.128 177.723 39.632V47H176.139V39.632C176.139 38.56 175.851 37.728 175.275 37.136C174.715 36.544 173.915 36.248 172.875 36.248C171.675 36.248 170.723 36.624 170.019 37.376C169.331 38.128 168.987 39.24 168.987 40.712V47H167.403V30.2H168.987V36.872C169.883 35.432 171.227 34.712 173.019 34.712ZM182.369 47H180.785V29.48H182.369V47ZM196.051 37.352V35H197.635V47H196.051V44.648C194.947 46.408 193.331 47.288 191.203 47.288C189.491 47.288 188.027 46.68 186.811 45.464C185.611 44.248 185.011 42.76 185.011 41C185.011 39.24 185.611 37.752 186.811 36.536C188.027 35.32 189.491 34.712 191.203 34.712C193.331 34.712 194.947 35.592 196.051 37.352ZM187.963 44.384C188.875 45.296 189.995 45.752 191.323 45.752C192.651 45.752 193.771 45.296 194.683 44.384C195.595 43.44 196.051 42.312 196.051 41C196.051 39.672 195.595 38.552 194.683 37.64C193.771 36.712 192.651 36.248 191.323 36.248C189.995 36.248 188.875 36.712 187.963 37.64C187.051 38.552 186.595 39.672 186.595 41C186.595 42.312 187.051 43.44 187.963 44.384ZM206.605 34.712C208.045 34.712 209.189 35.16 210.037 36.056C210.885 36.936 211.309 38.128 211.309 39.632V47H209.725V39.632C209.725 38.56 209.437 37.728 208.861 37.136C208.301 36.544 207.501 36.248 206.461 36.248C205.261 36.248 204.309 36.624 203.605 37.376C202.917 38.128 202.573 39.24 202.573 40.712V47H200.989V35H202.573V36.872C203.469 35.432 204.813 34.712 206.605 34.712ZM224.691 37.352V35H226.275V47H224.691V44.648C223.587 46.408 221.971 47.288 219.843 47.288C218.131 47.288 216.667 46.68 215.451 45.464C214.251 44.248 213.651 42.76 213.651 41C213.651 39.24 214.251 37.752 215.451 36.536C216.667 35.32 218.131 34.712 219.843 34.712C221.971 34.712 223.587 35.592 224.691 37.352ZM216.603 44.384C217.515 45.296 218.635 45.752 219.963 45.752C221.291 45.752 222.411 45.296 223.323 44.384C224.235 43.44 224.691 42.312 224.691 41C224.691 39.672 224.235 38.552 223.323 37.64C222.411 36.712 221.291 36.248 219.963 36.248C218.635 36.248 217.515 36.712 216.603 37.64C215.691 38.552 215.235 39.672 215.235 41C215.235 42.312 215.691 43.44 216.603 44.384ZM239.949 37.352V30.2H241.533V47H239.949V44.648C238.845 46.408 237.229 47.288 235.101 47.288C233.389 47.288 231.925 46.68 230.709 45.464C229.509 44.248 228.909 42.76 228.909 41C228.909 39.24 229.509 37.752 230.709 36.536C231.925 35.32 233.389 34.712 235.101 34.712C237.229 34.712 238.845 35.592 239.949 37.352ZM231.861 44.384C232.773 45.296 233.893 45.752 235.221 45.752C236.549 45.752 237.669 45.296 238.581 44.384C239.493 43.44 239.949 42.312 239.949 41C239.949 39.672 239.493 38.552 238.581 37.64C237.669 36.712 236.549 36.248 235.221 36.248C233.893 36.248 232.773 36.712 231.861 37.64C230.949 38.552 230.493 39.672 230.493 41C230.493 42.312 230.949 43.44 231.861 44.384ZM246.831 31.304C246.831 31.624 246.719 31.896 246.495 32.12C246.271 32.344 245.999 32.456 245.679 32.456C245.359 32.456 245.087 32.344 244.863 32.12C244.639 31.896 244.527 31.624 244.527 31.304C244.527 30.984 244.639 30.712 244.863 30.488C245.087 30.264 245.359 30.152 245.679 30.152C245.999 30.152 246.271 30.264 246.495 30.488C246.719 30.712 246.831 30.984 246.831 31.304ZM246.471 47H244.887V35H246.471V47ZM251.512 42.44H250.312L249.952 35V30.2H251.872V35L251.512 42.44ZM252.232 45.92C252.232 46.288 252.104 46.6 251.848 46.856C251.592 47.112 251.28 47.24 250.912 47.24C250.544 47.24 250.232 47.112 249.976 46.856C249.72 46.6 249.592 46.288 249.592 45.92C249.592 45.552 249.72 45.24 249.976 44.984C250.232 44.728 250.544 44.6 250.912 44.6C251.28 44.6 251.592 44.728 251.848 44.984C252.104 45.24 252.232 45.552 252.232 45.92Z" fill="white"/>
</svg>
