<svg width="92" height="80" viewBox="0 0 92 80" fill="none" xmlns="http://www.w3.org/2000/svg">
<path d="M84.4427 27.1083L63.9473 7.40428C58.9819 2.64036 52.4894 0.0563777 45.997 0C39.4853 0.0563777 33.0025 2.64036 28.0371 7.40428L7.54171 27.1083C-2.5139 36.7771 -2.5139 52.4501 7.54171 62.1189L10.1252 64.5995C14.7353 69.0251 38.717 79.1449 40.8683 80V41.7383C40.8683 40.5732 40.0328 39.5114 38.9091 39.0792L26.1259 34.1931C25.0598 35.0669 23.6864 35.5931 22.1881 35.5931C18.7979 35.5931 16.0607 32.9058 16.0607 29.5983C16.0607 26.2908 18.8075 23.6035 22.1881 23.6035C25.3191 23.6035 27.9027 25.915 28.2676 28.8654L40.7147 33.6199C42.4146 34.2683 44.1914 34.6065 45.9874 34.6253C47.7738 34.5971 49.5698 34.2683 51.2601 33.6199L63.7168 28.8654C64.0913 25.9056 66.6653 23.6035 69.7962 23.6035C73.1865 23.6035 75.9237 26.2908 75.9237 29.5983C75.9237 32.9058 73.1769 35.5931 69.7962 35.5931C68.2884 35.5931 66.915 35.0669 65.8585 34.1931L53.0657 39.0792C51.9228 39.5208 51.1064 40.5638 51.1064 41.7383V80C53.2578 79.1449 77.2491 69.0345 81.8495 64.5995L84.4331 62.1095C94.5175 52.4407 94.5175 36.7771 84.4619 27.1083M46.0162 26.1969C41.9248 26.1969 38.6114 22.9457 38.6114 18.9523C38.6114 14.9589 41.9344 11.7078 46.0162 11.7078C50.098 11.7078 53.4114 14.9589 53.4114 18.9523C53.4114 22.9457 50.0884 26.1969 46.0162 26.1969Z" fill="#7DBA28"/>
</svg>
