<svg width="31" height="31" viewBox="0 0 31 31" fill="none" xmlns="http://www.w3.org/2000/svg">
<path d="M30.9352 27.119L29.6129 21.9905L29.6128 21.9902L29.6128 21.9899L25.6458 6.60419L24.3234 1.4753C24.1915 0.965469 23.8704 0.530872 23.4304 0.266926C22.9905 0.00298073 22.4677 -0.0687397 21.9769 0.0675133L17.0418 1.44175C16.8362 1.49938 16.6413 1.59225 16.4651 1.71653C16.3222 1.34859 16.0769 1.03336 15.7605 0.811209C15.4441 0.589055 15.0712 0.470083 14.6894 0.469528H9.5802C9.10821 0.469685 8.65307 0.65185 8.3029 0.980748C7.95274 0.65185 7.4976 0.469685 7.02561 0.469528H1.91643C1.40847 0.470118 0.921468 0.680086 0.562282 1.05337C0.203096 1.42664 0.00105583 1.93275 0.000488281 2.46065V29.0089C0.00105583 29.5368 0.203096 30.0429 0.562282 30.4162C0.921468 30.7894 1.40847 30.9994 1.91643 31H7.02561C7.4976 30.9998 7.95274 30.8177 8.3029 30.4888C8.65306 30.8177 9.10821 30.9998 9.5802 31H14.6894C15.1973 30.9994 15.6843 30.7894 16.0435 30.4162C16.4027 30.0429 16.6048 29.5368 16.6053 29.0089V7.44176L17.0093 9.00872L17.0094 9.0089L17.0095 9.00911L20.9765 24.395V24.3952L20.9765 24.3954L22.2988 29.5238C22.3637 29.7765 22.476 30.0134 22.6291 30.221C22.7822 30.4285 22.9732 30.6027 23.1911 30.7335C23.4091 30.8642 23.6497 30.9491 23.8992 30.9831C24.1488 31.0171 24.4023 30.9997 24.6453 30.9318L29.5804 29.5575C29.8234 29.4899 30.0513 29.3731 30.2509 29.214C30.4505 29.0548 30.618 28.8563 30.7438 28.6299C30.8696 28.4035 30.9513 28.1535 30.9841 27.8942C31.0169 27.635 31.0003 27.3716 30.9352 27.119ZM18.4084 9.30641L24.5773 7.58867L28.2138 21.6928L22.045 23.4106L18.4084 9.30641ZM9.5802 1.79694H14.6894C14.8587 1.79713 15.021 1.86711 15.1408 1.99154C15.2605 2.11597 15.3278 2.28468 15.328 2.46065V23.0355H8.94155V2.46065C8.94173 2.28468 9.00908 2.11597 9.12881 1.99154C9.24854 1.86711 9.41087 1.79713 9.5802 1.79694ZM1.91643 1.79694H7.02561C7.19493 1.79713 7.35727 1.86711 7.477 1.99154C7.59673 2.11597 7.66408 2.28468 7.66426 2.46065V7.10659H1.27778V2.46065C1.27796 2.28468 1.34531 2.11597 1.46504 1.99154C1.58477 1.86711 1.74711 1.79713 1.91643 1.79694ZM7.02561 29.6726H1.91643C1.74711 29.6724 1.58477 29.6024 1.46504 29.478C1.34531 29.3536 1.27796 29.1849 1.27778 29.0089V8.434H7.66426V29.0089C7.66408 29.1849 7.59673 29.3536 7.477 29.478C7.35727 29.6024 7.19493 29.6724 7.02561 29.6726ZM14.6894 29.6726H9.5802C9.41087 29.6724 9.24854 29.6024 9.12881 29.478C9.00908 29.3536 8.94173 29.1849 8.94155 29.0089V24.3629H15.328V29.0089C15.3278 29.1849 15.2605 29.3536 15.1408 29.478C15.021 29.6024 14.8587 29.6724 14.6894 29.6726ZM16.9846 3.03313C17.0264 2.95748 17.0821 2.8912 17.1487 2.8381C17.2153 2.785 17.2913 2.74615 17.3724 2.7238L22.3075 1.34955C22.3885 1.32695 22.473 1.32117 22.5561 1.33252C22.6393 1.34388 22.7195 1.37215 22.7921 1.41573C22.8648 1.45931 22.9284 1.51734 22.9795 1.58651C23.0305 1.65567 23.068 1.73461 23.0896 1.81882L24.2468 6.30661L18.0778 8.02435L16.9208 3.53674C16.8989 3.45258 16.8932 3.36474 16.9041 3.27829C16.9151 3.19184 16.9424 3.10851 16.9846 3.03313ZM29.6376 27.9662C29.5959 28.0418 29.5401 28.1081 29.4735 28.1612C29.4069 28.2143 29.3309 28.2531 29.2498 28.2755L24.3148 29.6497C24.1512 29.6949 23.977 29.6708 23.8304 29.5829C23.6838 29.4949 23.5768 29.3501 23.5326 29.1803L22.3755 24.6926L28.5443 22.9748L29.7014 27.4626C29.7234 27.5467 29.729 27.6346 29.7181 27.721C29.7071 27.8075 29.6798 27.8908 29.6376 27.9662Z" fill="black" fill-opacity="0.5"/>
</svg>
