<svg width="44" height="44" viewBox="0 0 44 44" fill="none" xmlns="http://www.w3.org/2000/svg">
<circle cx="22" cy="22" r="22" fill="white"/>
<path d="M29.1824 25.3836C28.7615 25.3879 28.408 25.2518 28.1217 24.9752C27.8355 24.6986 27.6951 24.3681 27.7005 23.9836L27.7672 18.5619L15.9042 29.3814C15.6027 29.6563 15.25 29.7959 14.8459 29.8C14.4419 29.8041 14.0932 29.6718 13.7999 29.4029C13.5051 29.1341 13.36 28.8155 13.3645 28.447C13.3691 28.0785 13.522 27.7574 13.8235 27.4838L25.6865 16.6643L19.6893 16.7257C19.2685 16.73 18.9148 16.6015 18.6284 16.3403C18.3419 16.079 18.2014 15.7568 18.2068 15.3736C18.2116 14.9898 18.3604 14.6643 18.6533 14.3971C18.9463 14.1299 19.3028 13.9945 19.723 13.9908L29.3501 13.8923C29.5605 13.8902 29.7487 13.924 29.9148 13.994C30.0809 14.0639 30.2329 14.1625 30.3709 14.2896C30.5096 14.4161 30.6173 14.5551 30.694 14.7066C30.7707 14.858 30.8082 15.0294 30.8065 15.2207L30.6979 24.0489C30.6936 24.4007 30.5453 24.7099 30.2531 24.9764C29.9608 25.2429 29.6039 25.3787 29.1824 25.3836Z" fill="black" fill-opacity="0.75"/>
</svg>
