<svg width="54" height="63" viewBox="0 0 54 63" fill="none" xmlns="http://www.w3.org/2000/svg">
<path d="M14.5 6.16748H6.16667C5.0616 6.16748 4.00179 6.60647 3.22039 7.38787C2.43899 8.16927 2 9.22908 2 10.3341V56.1675C2 57.2726 2.43899 58.3324 3.22039 59.1138C4.00179 59.8952 5.0616 60.3342 6.16667 60.3342H47.8333C48.9384 60.3342 49.9982 59.8952 50.7796 59.1138C51.561 58.3324 52 57.2726 52 56.1675V10.3341C52 9.22908 51.561 8.16927 50.7796 7.38787C49.9982 6.60647 48.9384 6.16748 47.8333 6.16748H39.5" stroke="#7DBA28" stroke-width="4" stroke-linecap="round" stroke-linejoin="round"/>
<path d="M22.83 22.8333H43.6633M22.83 35.3333H43.6633M22.83 47.8333H43.6633M10.33 22.8333H14.4966M10.33 35.3333H14.4966M10.33 47.8333H14.4966M18.6633 2H35.33C36.435 2 37.4948 2.43899 38.2762 3.22039C39.0576 4.00179 39.4966 5.0616 39.4966 6.16667C39.4966 7.27174 39.0576 8.33154 38.2762 9.11294C37.4948 9.89435 36.435 10.3333 35.33 10.3333H18.6633C17.5582 10.3333 16.4984 9.89435 15.717 9.11294C14.9356 8.33154 14.4966 7.27174 14.4966 6.16667C14.4966 5.0616 14.9356 4.00179 15.717 3.22039C16.4984 2.43899 17.5582 2 18.6633 2Z" stroke="#7DBA28" stroke-width="4" stroke-linecap="round" stroke-linejoin="round"/>
</svg>
