<svg width="69" height="55" viewBox="0 0 69 55" fill="none" xmlns="http://www.w3.org/2000/svg">
<path d="M10.0611 15.825C10.0617 13.0965 10.7675 10.4146 12.1102 8.0393C13.4529 5.66405 15.3867 3.67621 17.7241 2.26868C20.0615 0.861158 22.7231 0.0817473 25.4505 0.00608779C28.1779 -0.0695717 30.8786 0.56109 33.2904 1.83687C35.7023 3.11265 37.7434 4.99023 39.2156 7.28739C40.6879 9.58455 41.5414 12.2233 41.6932 14.9475C41.845 17.6718 41.2901 20.389 40.0822 22.8356C38.8743 25.2821 37.0545 27.3748 34.7993 28.9107C39.6558 30.6919 43.868 33.8857 46.894 38.0811C49.92 42.2765 51.6212 47.2814 51.7788 52.4518C51.7721 53.0092 51.5502 53.5425 51.1596 53.9402C50.7689 54.338 50.2397 54.5694 49.6825 54.5861C49.1252 54.6028 48.5831 54.4036 48.1693 54.03C47.7555 53.6564 47.5021 53.1373 47.462 52.5813C47.2906 46.9736 44.9425 41.653 40.9153 37.747C36.8881 33.841 31.4983 31.6565 25.888 31.6565C20.2777 31.6565 14.8879 33.841 10.8607 37.747C6.83346 41.653 4.48537 46.9736 4.314 52.5813C4.28518 53.1448 4.03679 53.6747 3.62204 54.0574C3.20728 54.4401 2.65916 54.6451 2.09508 54.6285C1.531 54.612 0.995841 54.3752 0.604247 53.9688C0.212652 53.5625 -0.0042302 53.0189 6.25299e-05 52.4546C0.157055 47.2838 1.85804 42.2782 4.88406 38.0823C7.91009 33.8864 12.1227 30.6921 16.9795 28.9107C14.8465 27.4592 13.101 25.508 11.8951 23.2271C10.6892 20.9463 10.0596 18.405 10.0611 15.825ZM25.8894 4.31352C22.8364 4.31352 19.9084 5.52633 17.7496 7.68516C15.5907 9.84398 14.3779 12.772 14.3779 15.825C14.3779 18.8781 15.5907 21.8061 17.7496 23.9649C19.9084 26.1237 22.8364 27.3365 25.8894 27.3365C28.9425 27.3365 31.8705 26.1237 34.0293 23.9649C36.1881 21.8061 37.4009 18.8781 37.4009 15.825C37.4009 12.772 36.1881 9.84398 34.0293 7.68516C31.8705 5.52633 28.9425 4.31352 25.8894 4.31352ZM49.747 15.825C49.3211 15.825 48.9067 15.8538 48.498 15.9114C48.2127 15.9624 47.92 15.9555 47.6374 15.8911C47.3548 15.8266 47.0881 15.7058 46.8532 15.536C46.6183 15.3662 46.42 15.1509 46.2701 14.9028C46.1202 14.6547 46.0219 14.3789 45.9809 14.092C45.9399 13.805 45.9571 13.5128 46.0315 13.2326C46.1059 12.9525 46.236 12.6902 46.414 12.4614C46.5919 12.2327 46.8142 12.0421 47.0674 11.901C47.3207 11.76 47.5997 11.6714 47.8879 11.6406C50.7502 11.2268 53.6688 11.7764 56.1844 13.2031C58.7001 14.6297 60.67 16.8523 61.784 19.5212C62.8981 22.19 63.0931 25.1535 62.3384 27.9453C61.5837 30.7371 59.9221 33.1987 57.6151 34.9428C61.0064 36.4612 63.8858 38.9286 65.9059 42.0472C67.9261 45.1657 69.0006 48.8022 69 52.5179C69 53.0904 68.7726 53.6394 68.3678 54.0442C67.963 54.449 67.414 54.6764 66.8416 54.6764C66.2691 54.6764 65.7202 54.449 65.3154 54.0442C64.9106 53.6394 64.6832 53.0904 64.6832 52.5179C64.6828 49.3067 63.6481 46.1809 61.7323 43.6037C59.8165 41.0265 57.1215 39.1349 54.0466 38.2091L52.5098 37.7487V32.9254L53.6897 32.3239C55.4387 31.4379 56.8382 29.9884 57.6621 28.2092C58.4859 26.4301 58.6862 24.4252 58.2305 22.5183C57.7748 20.6113 56.6897 18.9136 55.1505 17.6992C53.6113 16.4847 51.7077 15.8245 49.747 15.825Z" fill="#7DBA28"/>
</svg>
