<svg width="55" height="55" viewBox="0 0 55 55" fill="none" xmlns="http://www.w3.org/2000/svg">
<path d="M2.00612 51.9668C2.00804 52.1043 2.03703 52.2401 2.09142 52.3663C2.14582 52.4926 2.22455 52.6069 2.32313 52.7028C2.42171 52.7986 2.53821 52.8741 2.66596 52.9249C2.79372 52.9757 2.93023 53.0009 3.0677 52.9989H51.9288C52.0664 53.001 52.2031 52.976 52.331 52.9253C52.4589 52.8746 52.5755 52.7991 52.6743 52.7033C52.773 52.6074 52.8518 52.493 52.9063 52.3667C52.9608 52.2403 52.9898 52.1044 52.9918 51.9668V50.7348C53.0159 50.3631 53.0656 48.511 51.8443 46.4616C51.0739 45.1692 49.956 44.0539 48.5213 43.144C46.786 42.0435 44.5783 41.2477 41.9075 40.7685C40.5518 40.5777 39.207 40.3161 37.8786 39.9848C34.3462 39.0829 34.0376 38.2843 34.0349 38.2763C34.0145 38.1974 33.9847 38.1213 33.9463 38.0495C33.9168 37.9018 33.8456 37.3409 33.9825 35.8391C34.3288 32.0235 36.3755 29.7688 38.0195 27.957C38.5375 27.3866 39.0274 26.8458 39.4045 26.317C41.0325 24.0355 41.1828 21.4385 41.1895 21.2775C41.1956 20.9921 41.1562 20.7076 41.0727 20.4347C40.9117 19.9381 40.6124 19.6294 40.3923 19.4013C40.3402 19.349 40.2897 19.2953 40.2407 19.2402C40.2245 19.2214 40.1816 19.1704 40.2205 18.9141C40.3521 18.0883 40.443 17.2566 40.493 16.4219C40.5681 15.0771 40.6258 13.0666 40.2782 11.1086C40.2272 10.7345 40.1501 10.3646 40.0474 10.0013C39.681 8.65389 39.0932 7.50238 38.2758 6.55219C38.1349 6.39785 34.7153 2.79436 24.7879 2.05622C23.415 1.95422 22.0581 2.00925 20.7214 2.07769C20.3261 2.08648 19.9327 2.13504 19.5471 2.22264C18.5218 2.48703 18.248 3.1366 18.1768 3.5003C18.0574 4.10424 18.2668 4.57128 18.405 4.88264C18.4251 4.92693 18.4506 4.98196 18.4063 5.1269C18.1768 5.48389 17.8131 5.80599 17.4441 6.11064C17.3367 6.20056 14.8485 8.34789 14.7116 11.1515C14.3425 13.2841 14.3694 16.6057 14.8055 18.902C14.8324 19.0295 14.8686 19.2174 14.8082 19.3449C14.3385 19.765 13.807 20.2414 13.8084 21.3285C13.8137 21.4385 13.9654 24.0341 15.5933 26.317C15.9691 26.8458 16.459 27.3853 16.9757 27.9557L16.9784 27.957C18.6224 29.7688 20.6691 32.0235 21.0153 35.8377C21.1509 37.3409 21.0798 37.9005 21.0516 38.0495C21.0126 38.1212 20.9824 38.1974 20.9617 38.2763C20.9603 38.2843 20.653 39.0802 17.1367 39.9807C15.1075 40.5001 13.1105 40.7659 13.0501 40.7726C10.4545 41.2114 8.26021 41.9885 6.52759 43.0823C5.09827 43.9855 3.97763 45.1048 3.19923 46.4066C1.95378 48.4868 1.98733 50.3819 2.00478 50.7281V51.9668H2.00612Z" stroke="#7DBA28" stroke-width="4" stroke-linejoin="round"/>
</svg>
