<svg width="37" height="37" viewBox="0 0 37 37" fill="none" xmlns="http://www.w3.org/2000/svg">
<path d="M10.8793 0C9.77476 0 8.87933 0.895431 8.87933 2V20.7205H2.00012C0.895553 20.7205 0.00012207 21.6126 0.00012207 22.7171C0.00012207 25.5809 0.00012207 30.7386 0.00012207 32.8213C0.00012207 35.7764 2.75258 36.9992 4.79159 36.9992C6.8306 36.9992 27.3609 36.9992 32.5605 36.9992C34.8035 36.9992 37.0008 34.8173 37.0008 32.559C37.0008 31.1803 37.0008 8.86656 37.0008 1.99689C37.0008 0.892317 36.1053 0 35.0008 0H10.8793ZM4.79159 35.5196C3.86994 35.5196 1.48115 35.0352 1.48115 32.8213V22.2001H8.88072V32.1828C8.88072 33.1738 7.58569 35.5196 5.5439 35.5196H4.79159ZM35.5197 32.559C35.5197 33.9969 33.9985 35.5196 32.5591 35.5196H8.80577C9.80237 34.4814 10.359 33.1169 10.359 32.1828V3.47964C10.359 2.37507 11.2544 1.47964 12.359 1.47964H33.5184C34.623 1.47964 35.5184 2.37501 35.5184 3.47955L35.5197 32.559Z" fill="black" fill-opacity="0.5"/>
<path d="M13.3197 4.44019H32.5591V5.91982H13.3197V4.44019Z" fill="black" fill-opacity="0.5"/>
<path d="M13.3197 24.4194H32.5591V25.8991H13.3197V24.4194Z" fill="black" fill-opacity="0.5"/>
<path d="M13.3197 29.5996H32.5591V31.0792H13.3197V29.5996Z" fill="black" fill-opacity="0.5"/>
<path d="M32.5591 9.6189H13.3197V20.719H32.5591V9.6189ZM31.0795 19.2393H14.7993V11.0999H31.0795V19.2393Z" fill="black" fill-opacity="0.5"/>
</svg>
