<svg width="45" height="40" viewBox="0 0 45 40" fill="none" xmlns="http://www.w3.org/2000/svg">
<circle cx="20" cy="20" r="18.5" stroke="#E6E6E6" stroke-width="3" stroke-dasharray="4 4"/>
<mask id="path-2-inside-1_380_176" fill="white">
<path d="M37.3205 30C35.5237 33.1121 32.9217 35.6826 29.788 37.4412C26.6543 39.1999 23.1046 40.0817 19.5122 39.9941C15.9198 39.9065 12.4174 38.8526 9.37315 36.9432C6.32891 35.0339 3.85533 32.3396 2.21247 29.1436C0.569605 25.9477 -0.181848 22.3682 0.0371144 18.7814C0.256077 15.1946 1.43736 11.733 3.45678 8.76067C5.4762 5.7883 8.25915 3.41492 11.513 1.89004C14.7669 0.365171 18.3716 -0.254861 21.9479 0.0951422L20 20L37.3205 30Z"/>
</mask>
<path d="M37.3205 30C35.5237 33.1121 32.9217 35.6826 29.788 37.4412C26.6543 39.1999 23.1046 40.0817 19.5122 39.9941C15.9198 39.9065 12.4174 38.8526 9.37315 36.9432C6.32891 35.0339 3.85533 32.3396 2.21247 29.1436C0.569605 25.9477 -0.181848 22.3682 0.0371144 18.7814C0.256077 15.1946 1.43736 11.733 3.45678 8.76067C5.4762 5.7883 8.25915 3.41492 11.513 1.89004C14.7669 0.365171 18.3716 -0.254861 21.9479 0.0951422L20 20L37.3205 30Z" stroke="url(#paint0_linear_380_176)" stroke-width="6" mask="url(#path-2-inside-1_380_176)"/>
<mask id="path-3-inside-2_380_176" fill="white">
<path d="M20 -8.74228e-07C15.7764 -6.89609e-07 11.6612 1.3371 8.24429 3.81966C4.82734 6.30222 2.28403 9.80279 0.978868 13.8197C-0.326291 17.8365 -0.326291 22.1635 0.978869 26.1803C2.28403 30.1972 4.82734 33.6978 8.2443 36.1803C11.6612 38.6629 15.7764 40 20 40C24.2236 40 28.3388 38.6629 31.7557 36.1803C35.1727 33.6978 37.716 30.1972 39.0211 26.1803C40.3263 22.1635 40.3263 17.8365 39.0211 13.8197L20 20L20 -8.74228e-07Z"/>
</mask>
<path d="M20 -8.74228e-07C15.7764 -6.89609e-07 11.6612 1.3371 8.24429 3.81966C4.82734 6.30222 2.28403 9.80279 0.978868 13.8197C-0.326291 17.8365 -0.326291 22.1635 0.978869 26.1803C2.28403 30.1972 4.82734 33.6978 8.2443 36.1803C11.6612 38.6629 15.7764 40 20 40C24.2236 40 28.3388 38.6629 31.7557 36.1803C35.1727 33.6978 37.716 30.1972 39.0211 26.1803C40.3263 22.1635 40.3263 17.8365 39.0211 13.8197L20 20L20 -8.74228e-07Z" stroke="url(#paint1_linear_380_176)" stroke-width="6" mask="url(#path-3-inside-2_380_176)"/>
<circle cx="20" cy="20" r="17" fill="#FAFAFA"/>
<path d="M18.2891 20.7109L16.7891 20.3438L17.4062 14.625H23.5391V16.2188H18.9688L18.6562 19.0078C18.8333 18.9036 19.0781 18.8021 19.3906 18.7031C19.7031 18.599 20.0599 18.5469 20.4609 18.5469C20.9974 18.5469 21.4766 18.6354 21.8984 18.8125C22.3255 18.9844 22.6875 19.237 22.9844 19.5703C23.2812 19.8984 23.5078 20.2995 23.6641 20.7734C23.8203 21.2422 23.8984 21.7708 23.8984 22.3594C23.8984 22.8854 23.8203 23.3776 23.6641 23.8359C23.513 24.2943 23.2839 24.6979 22.9766 25.0469C22.6693 25.3958 22.2812 25.6693 21.8125 25.8672C21.349 26.0599 20.7995 26.1562 20.1641 26.1562C19.6901 26.1562 19.2344 26.0885 18.7969 25.9531C18.3646 25.8125 17.9766 25.6068 17.6328 25.3359C17.2891 25.0599 17.013 24.7214 16.8047 24.3203C16.5964 23.9141 16.4766 23.4479 16.4453 22.9219H18.2891C18.3359 23.2917 18.4375 23.6068 18.5938 23.8672C18.7552 24.1224 18.9688 24.3177 19.2344 24.4531C19.5 24.5885 19.8073 24.6562 20.1562 24.6562C20.474 24.6562 20.7474 24.6016 20.9766 24.4922C21.2057 24.3776 21.3958 24.2161 21.5469 24.0078C21.7031 23.7943 21.8177 23.5443 21.8906 23.2578C21.9688 22.9714 22.0078 22.6536 22.0078 22.3047C22.0078 21.9714 21.9635 21.6667 21.875 21.3906C21.7917 21.1146 21.6641 20.875 21.4922 20.6719C21.3255 20.4688 21.1146 20.3125 20.8594 20.2031C20.6042 20.0885 20.3099 20.0312 19.9766 20.0312C19.5286 20.0312 19.1849 20.0964 18.9453 20.2266C18.7109 20.3568 18.4922 20.5182 18.2891 20.7109Z" fill="black"/>
<path d="M40.1797 12.0391L43.5312 12.5312C43.8125 12.5781 44.0469 12.7656 44.1406 13.0469C44.2344 13.3047 44.1641 13.6094 43.9531 13.7969L41.5156 16.2109L42.1016 19.6328C42.1484 19.9141 42.0312 20.1953 41.7969 20.3594C41.5625 20.5469 41.2578 20.5469 41 20.4297L38 18.8125L34.9766 20.4297C34.7422 20.5469 34.4141 20.5469 34.2031 20.3594C33.9688 20.1953 33.8516 19.9141 33.8984 19.6328L34.4609 16.2109L32.0234 13.7969C31.8125 13.6094 31.7422 13.3047 31.8359 13.0469C31.9297 12.7656 32.1641 12.5781 32.4453 12.5312L35.8203 12.0391L37.3203 8.92188C37.4375 8.66406 37.6953 8.5 38 8.5C38.2812 8.5 38.5391 8.66406 38.6562 8.92188L40.1797 12.0391Z" fill="#FF991F"/>
<defs>
<linearGradient id="paint0_linear_380_176" x1="37.3205" y1="30" x2="4.75791" y2="11.2" gradientUnits="userSpaceOnUse">
<stop stop-color="#FFC887"/>
<stop offset="1" stop-color="#FFF1E0"/>
</linearGradient>
<linearGradient id="paint1_linear_380_176" x1="38.5" y1="15" x2="20" y2="9.13912e-07" gradientUnits="userSpaceOnUse">
<stop stop-color="#FFC887"/>
<stop offset="1" stop-color="#FFF1E0"/>
</linearGradient>
</defs>
</svg>
