<svg width="7" height="10" viewBox="0 0 7 10" fill="none" xmlns="http://www.w3.org/2000/svg">
<path d="M0.707852 9.80237C0.569284 9.67062 0.5 9.51462 0.5 9.33439C0.5 9.15415 0.569284 8.99833 0.707852 8.86693L4.76789 5.00659L0.693995 1.13307C0.564665 1.0101 0.5 0.85639 0.5 0.671937C0.5 0.487484 0.569284 0.329381 0.707852 0.197628C0.84642 0.0658761 1.01048 0 1.20005 0C1.38961 0 1.55349 0.0658761 1.69168 0.197628L6.34757 4.63768C6.40299 4.69038 6.44235 4.74747 6.46563 4.80896C6.48891 4.87044 6.50036 4.93632 6.49999 5.00659C6.49999 5.07686 6.48835 5.14273 6.46507 5.20422C6.44179 5.2657 6.40262 5.32279 6.34757 5.37549L1.67783 9.81555C1.5485 9.93851 1.38905 10 1.19949 10C1.00993 10 0.84605 9.93412 0.707852 9.80237Z" fill="white"/>
</svg>
