<svg width="211" height="71" viewBox="0 0 211 71" fill="none" xmlns="http://www.w3.org/2000/svg">
<path d="M90.3324 36.9413C90.3324 46.9855 82.5152 54.3869 72.9216 54.3869C63.328 54.3869 55.5107 46.9855 55.5107 36.9413C55.5107 26.8263 63.328 19.4957 72.9216 19.4957C82.5152 19.4957 90.3324 26.8263 90.3324 36.9413ZM82.7108 36.9413C82.7108 30.6647 78.1801 26.3701 72.9216 26.3701C67.6631 26.3701 63.1324 30.6647 63.1324 36.9413C63.1324 43.155 67.6631 47.5125 72.9216 47.5125C78.1801 47.5125 82.7108 43.1472 82.7108 36.9413Z" fill="#EA4335"/>
<path d="M127.892 36.9413C127.892 46.9855 120.075 54.3869 110.481 54.3869C100.888 54.3869 93.0703 46.9855 93.0703 36.9413C93.0703 26.8342 100.888 19.4957 110.481 19.4957C120.075 19.4957 127.892 26.8263 127.892 36.9413ZM120.27 36.9413C120.27 30.6647 115.74 26.3701 110.481 26.3701C105.223 26.3701 100.692 30.6647 100.692 36.9413C100.692 43.155 105.223 47.5125 110.481 47.5125C115.74 47.5125 120.27 43.1472 120.27 36.9413Z" fill="#FBBC05"/>
<path d="M163.741 20.5497V51.8699C163.741 64.7535 156.182 70.0155 147.246 70.0155C138.834 70.0155 133.771 64.3603 131.862 59.7354L138.497 56.9589C139.679 59.7983 142.574 63.149 147.238 63.149C152.958 63.149 156.503 59.6017 156.503 52.9239V50.4148H156.237C154.531 52.5306 151.244 54.379 147.097 54.379C138.419 54.379 130.469 46.781 130.469 37.0042C130.469 27.1567 138.419 19.4957 147.097 19.4957C151.237 19.4957 154.523 21.3441 156.237 23.397H156.503V20.5576H163.741V20.5497ZM157.043 37.0042C157.043 30.8613 152.966 26.3701 147.778 26.3701C142.519 26.3701 138.114 30.8613 138.114 37.0042C138.114 43.0842 142.519 47.5125 147.778 47.5125C152.966 47.5125 157.043 43.0842 157.043 37.0042Z" fill="#4285F4"/>
<path d="M175.674 2.19153V53.3169H168.24V2.19153H175.674Z" fill="#34A853"/>
<path d="M204.643 42.683L210.559 46.6472C208.65 49.4866 204.048 54.3789 196.098 54.3789C186.238 54.3789 178.875 46.718 178.875 36.9334C178.875 26.5588 186.301 19.4878 195.245 19.4878C204.252 19.4878 208.657 26.6925 210.097 30.5859L210.888 32.568L187.686 42.2268C189.462 45.7269 192.225 47.5124 196.098 47.5124C199.979 47.5124 202.671 45.5932 204.643 42.683ZM186.434 36.4064L201.943 29.9331C201.091 27.7544 198.524 26.2363 195.503 26.2363C191.63 26.2363 186.238 29.6735 186.434 36.4064Z" fill="#EA4335"/>
<path d="M27.3712 32.4028V25.0014H52.1846C52.4272 26.2914 52.5524 27.8173 52.5524 29.469C52.5524 35.022 51.0422 41.8885 46.1749 46.7809C41.4407 51.7361 35.3919 54.3789 27.379 54.3789C12.527 54.3789 0.0380859 42.2189 0.0380859 27.2903C0.0380859 12.3616 12.527 0.20166 27.379 0.20166C35.5954 0.20166 41.4486 3.44223 45.8463 7.66597L40.6504 12.8886C37.4969 9.91549 33.2244 7.60305 27.3712 7.60305C16.5256 7.60305 8.04317 16.3888 8.04317 27.2903C8.04317 38.1918 16.5256 46.9775 27.3712 46.9775C34.406 46.9775 38.4124 44.1381 40.9791 41.5582C43.0605 39.466 44.4299 36.4771 44.9699 32.3949L27.3712 32.4028Z" fill="#4285F4"/>
</svg>
