<svg width="254" height="42" viewBox="0 0 254 42" fill="none" xmlns="http://www.w3.org/2000/svg">
<path d="M239.207 28.0659C238.856 28.0915 238.503 28.1048 238.158 28.1499C237.934 28.1777 237.846 28.0684 237.702 28.0076C237.654 27.9865 237.604 27.946 237.558 27.9492C237.21 27.9748 236.863 28.0053 236.516 28.0357C236.404 28.1256 236.329 28.2481 236.165 28.2878C236.004 28.3252 235.817 28.3183 235.64 28.3334C235.406 28.3512 235.173 28.369 234.939 28.3844C234.822 28.3922 234.724 28.4343 234.68 28.5194C234.672 28.5336 234.747 28.5725 234.788 28.5957C234.924 28.6731 235.056 28.76 235.207 28.821C235.351 28.8794 235.54 28.7997 235.694 28.8729C236.039 29.0376 236.043 29.0353 236.316 29.0165C236.55 28.9987 236.783 28.9785 237.017 28.9679C237.063 28.9648 237.113 29.0028 237.161 29.0239C237.306 29.0823 237.393 29.2061 237.614 29.1685C237.781 29.1386 237.965 29.1382 238.138 29.1253C238.278 29.2004 238.407 29.2847 238.558 29.3458C238.699 29.4041 238.738 29.4465 238.656 29.5134C238.582 29.5757 238.482 29.5985 238.351 29.5985C238.235 29.5966 238.118 29.6139 238.001 29.6216C237.941 29.6265 237.884 29.6293 237.827 29.6344C237.604 29.6526 237.604 29.6526 237.209 29.4837C237.055 29.4177 236.87 29.4951 236.723 29.4318C236.623 29.3895 236.539 29.3286 236.443 29.284C236.402 29.2656 236.335 29.2607 236.282 29.2636C236.105 29.2739 235.929 29.2793 235.758 29.3043C235.637 29.3215 235.562 29.3862 235.572 29.4541C235.574 29.4807 235.656 29.5223 235.705 29.5265C235.817 29.5355 235.939 29.5063 236.047 29.5272C236.151 29.5479 236.257 29.6001 236.331 29.6559C236.483 29.7724 236.668 29.6805 236.817 29.7149C236.974 29.7521 237.098 29.8531 237.245 29.9165C237.283 29.9323 237.358 29.911 237.419 29.906C237.592 29.8956 237.765 29.8876 237.939 29.8772C238.078 29.9523 238.229 30.0206 238.354 30.1047C238.581 30.2578 238.83 30.3225 239.141 30.2641C239.316 30.2321 239.483 30.2528 239.615 30.3517C239.749 30.4531 239.911 30.4495 240.092 30.4369C240.259 30.4239 240.431 30.3772 240.595 30.4508C240.951 30.6135 240.955 30.6209 241.391 30.5793C241.522 30.5673 241.621 30.5661 241.716 30.6251C241.804 30.679 241.9 30.7259 241.991 30.7776C242.165 30.7671 242.342 30.7569 242.515 30.744C242.739 30.7258 242.859 30.7641 242.904 30.9007C242.93 30.9836 242.939 31.0587 243.013 31.1169C243.1 31.1876 243.199 31.1888 243.334 31.1746C243.461 31.1625 243.555 31.1394 243.613 31.0548C243.636 31.0195 243.681 30.9874 243.721 30.96C243.754 30.9395 243.806 30.9077 243.833 30.9136C243.886 30.9252 243.954 30.9542 243.97 30.9861C244.123 31.2835 244.123 31.2859 244.294 31.3766C244.481 31.4776 244.676 31.5692 244.845 31.6815C244.998 31.7812 245.159 31.7462 245.331 31.7527C245.461 31.7575 245.541 31.8232 245.527 31.8853C245.518 31.9211 245.465 31.9721 245.422 31.9754C245.075 32.0107 244.724 32.0386 244.374 32.0593C244.331 32.0625 244.281 32.0173 244.233 31.9938C244.138 31.9469 244.054 31.8763 243.949 31.8579C243.845 31.8396 243.719 31.8711 243.603 31.8788C243.486 31.8865 243.361 31.9132 243.256 31.89C243.152 31.8668 243.072 31.794 242.977 31.7446C242.932 31.7213 242.871 31.6877 242.832 31.6934C242.572 31.7416 242.387 31.6552 242.211 31.5426C242.173 31.5195 242.107 31.5026 242.058 31.5056C241.647 31.5313 241.24 31.5643 240.829 31.5948C240.662 31.6079 240.534 31.5188 240.508 31.3756C240.495 31.2956 240.465 31.2149 240.47 31.1356C240.48 30.9913 240.291 30.9047 240.15 30.9163C239.916 30.9317 239.679 30.9422 239.448 30.9698C239.26 30.9917 239.104 30.9569 238.983 30.8657C238.841 30.7616 238.671 30.7746 238.501 30.7947C238.373 30.8093 238.333 30.8873 238.327 31.0871C238.324 31.2485 238.261 31.2968 238.03 31.3147C237.74 31.3377 237.446 31.3605 237.152 31.3761C237.106 31.3792 237.056 31.3363 237.012 31.313C236.916 31.2661 236.832 31.193 236.728 31.1747C236.623 31.1539 236.498 31.1854 236.381 31.1955C236.264 31.2032 236.139 31.2323 236.035 31.2116C235.93 31.1908 235.847 31.1154 235.755 31.0662C235.711 31.0429 235.656 31.0095 235.61 31.0126C235.377 31.0232 235.143 31.0434 234.909 31.0612C234.647 31.0804 234.647 31.0804 234.287 30.9176C234.123 30.844 233.951 30.8906 233.784 30.9037C233.607 30.9164 233.441 30.9199 233.31 30.8186C233.223 30.7526 233.123 30.7104 233.014 30.7183C232.72 30.7363 232.429 30.7617 232.135 30.7797C232.086 30.7827 232.02 30.7682 231.983 30.7451C231.803 30.6371 231.625 30.551 231.361 30.5918C231.133 30.6267 230.891 30.6201 230.663 30.6526C230.539 30.6697 230.477 30.7445 230.498 30.8055C230.51 30.8373 230.582 30.8762 230.631 30.878C230.743 30.8846 230.869 30.8531 230.973 30.8714C231.19 30.9084 231.286 31.1144 231.574 31.0697C231.745 31.0423 231.922 31.0369 232.098 31.0338C232.144 31.0331 232.19 31.0806 232.238 31.1065C232.374 31.1766 232.492 31.2654 232.699 31.2297C232.87 31.2023 233.05 31.1994 233.223 31.1865C233.5 31.1655 233.499 31.1679 233.845 31.3278C234.01 31.4038 234.182 31.3548 234.348 31.3441C234.472 31.3366 234.59 31.3169 234.686 31.3542C234.834 31.4104 234.936 31.5298 235.123 31.5295C235.299 31.5289 235.473 31.5016 235.65 31.4961C235.759 31.493 235.859 31.5353 235.943 31.6034C236.03 31.6718 236.127 31.7043 236.247 31.6943C236.421 31.6815 236.598 31.664 236.775 31.6585C236.824 31.6579 236.879 31.6817 236.923 31.7026C237.019 31.7496 237.111 31.8036 237.203 31.8528C237.376 31.8448 237.552 31.8465 237.723 31.8239C237.854 31.8071 237.945 31.8202 238.048 31.8722C238.177 31.9421 238.279 32.0616 238.5 32.0144C238.611 31.992 238.737 32.0039 238.848 31.9839C238.983 31.9576 239.074 31.973 239.164 32.0487C239.335 32.1924 239.56 32.2032 239.795 32.1589C240.052 32.1106 240.238 32.1851 240.421 32.2979C240.614 32.416 240.615 32.4136 240.752 32.6863C240.793 32.7649 240.921 32.8058 241.031 32.7955C241.215 32.7782 241.373 32.7961 241.501 32.8925C241.635 32.9963 241.804 32.9905 241.978 32.9705C242.209 32.9429 242.44 32.9202 242.617 33.0666C242.705 33.1373 242.802 33.1578 242.926 33.1455C243.277 33.1152 243.63 33.1019 243.975 33.0617C244.185 33.0357 244.299 33.1171 244.436 33.1873C244.62 33.2833 244.822 33.3704 244.81 33.5603C244.808 33.5916 244.855 33.6295 244.896 33.6551C244.984 33.709 245.08 33.7559 245.172 33.8076C245.308 33.8849 245.441 33.9502 245.637 33.9189C245.808 33.8939 245.988 33.891 246.161 33.8757C246.335 33.8605 246.494 33.8544 246.643 33.9515C246.816 34.0616 246.999 34.1672 247.198 34.2518C247.339 34.3124 247.535 34.2257 247.685 34.306C247.777 34.3552 247.865 34.4115 247.964 34.4538C248.006 34.4722 248.073 34.4627 248.13 34.4599C248.247 34.4546 248.367 34.4519 248.481 34.432C248.612 34.4104 248.711 34.4189 248.805 34.4779C248.894 34.5318 248.981 34.6049 249.085 34.6232C249.242 34.6508 249.424 34.5611 249.575 34.6776C249.653 34.736 249.751 34.7927 249.856 34.8134C249.96 34.8342 250.085 34.8027 250.198 34.8093C250.247 34.8111 250.304 34.8518 250.331 34.8841C250.347 34.9016 250.32 34.9464 250.293 34.9695C250.26 34.9972 250.212 35.034 250.166 35.0371C249.815 35.0674 249.464 35.0905 249.114 35.1184C248.905 35.1348 248.905 35.1348 248.496 34.9677C248.4 34.928 248.29 34.9311 248.166 34.9434C247.999 34.9589 247.828 34.9935 247.658 34.9438C247.444 34.7719 247.167 34.7471 246.867 34.7986C246.743 34.8205 246.63 34.8163 246.542 34.7672C246.354 34.6687 246.155 34.5769 245.99 34.4623C245.862 34.3732 245.799 34.3636 245.735 34.4769C245.715 34.5124 245.695 34.5502 245.697 34.584C245.71 34.705 245.741 34.8242 245.755 34.9453C245.76 34.9792 245.729 35.0166 245.709 35.052C245.646 35.1509 245.573 35.141 245.455 35.0522C245.338 34.9635 245.193 34.9027 244.994 34.9338C244.823 34.9612 244.641 34.9496 244.469 34.9794C244.206 35.0226 244.028 34.9389 243.848 34.8285C243.811 34.8055 243.745 34.791 243.695 34.7939C243.168 34.8297 242.643 34.8729 242.116 34.9087C242.002 34.9165 241.903 34.8767 241.819 34.8085C241.732 34.7402 241.632 34.7027 241.518 34.7105C241.051 34.7438 240.584 34.7722 240.116 34.8174C239.924 34.8368 239.775 34.7999 239.65 34.7109C239.556 34.6447 239.466 34.6221 239.342 34.6247C239.208 34.627 239.111 34.6475 239.04 34.7148C238.973 34.7797 239.016 34.8223 239.153 34.8804C239.301 34.9438 239.436 35.0236 239.576 35.0963C239.693 35.091 239.81 35.076 239.923 35.0826C239.972 35.0844 240.015 35.1294 240.063 35.1553C240.199 35.2303 240.324 35.3049 240.527 35.2738C240.698 35.2465 240.878 35.2459 241.052 35.2307C241.293 35.2131 241.293 35.2131 241.67 35.379C241.766 35.4212 241.871 35.4227 241.999 35.4057C242.109 35.3929 242.22 35.4308 242.293 35.5058C242.322 35.5359 242.309 35.5836 242.232 35.7398C242.224 35.8576 242.302 35.8075 242.331 35.7314C242.377 35.6222 242.305 35.5834 242.161 35.6383C242.06 35.6779 242.006 35.7386 242.028 35.7901C242.04 35.817 242.105 35.8532 242.232 35.7398C242.551 35.607 242.787 35.5989 243.015 35.5688C243.15 35.5522 243.234 35.5649 243.335 35.6314C243.457 35.7106 243.579 35.7947 243.788 35.764C244.016 35.729 244.256 35.7331 244.487 35.7055C244.7 35.6797 244.802 35.7896 244.932 35.8571C245.089 35.9377 245.273 35.8602 245.418 35.9089C245.57 35.958 245.673 36.0678 245.851 36.0937C246.115 36.0385 246.273 36.1649 246.465 36.2516C246.615 36.3174 246.802 36.2713 246.969 36.251C247.157 36.2291 247.31 36.2613 247.434 36.3527C247.576 36.4568 247.743 36.4413 247.913 36.426C248.31 36.3925 248.324 36.3858 248.544 36.5266C248.703 36.6289 248.865 36.5915 249.031 36.5857C249.171 36.656 249.307 36.7309 249.454 36.7942C249.492 36.8101 249.568 36.7888 249.628 36.7838C249.801 36.771 249.978 36.7583 250.152 36.7455C250.269 36.7378 250.394 36.7063 250.499 36.7246C250.603 36.7454 250.687 36.8184 250.779 36.8676C250.871 36.9169 250.966 36.9662 251.055 37.0177C251.191 37.0951 251.32 37.1602 251.52 37.1314C251.69 37.1064 251.867 37.1033 252.044 37.0882C252.267 37.07 252.26 37.077 252.662 37.2366C252.879 37.3242 253.113 37.2365 253.339 37.2353C253.452 37.2346 253.559 37.2651 253.632 37.3378C253.662 37.3678 253.648 37.4155 253.656 37.4568C253.072 37.5001 252.485 37.5337 251.906 37.5917C251.683 37.6147 251.572 37.5238 251.457 37.4472C251.268 37.3245 250.997 37.4831 250.82 37.3271C250.713 37.2339 250.554 37.1775 250.358 37.2135C250.244 37.2334 250.125 37.2265 250.007 37.2439C249.709 37.2858 249.438 37.2781 249.213 37.1034C249.135 37.0427 249.021 37.0071 248.94 36.9487C248.846 36.8849 248.753 36.8477 248.636 36.8554C248.109 36.8936 247.584 36.932 247.06 36.9751C247.014 36.9782 246.966 37.0126 246.925 37.0376C246.823 37.1013 246.851 37.1554 247.007 37.2045C247.058 37.2209 247.099 37.2537 247.146 37.2796C247.238 37.3288 247.322 37.4043 247.426 37.425C247.53 37.4458 247.656 37.4167 247.773 37.409C247.889 37.4013 248.015 37.3698 248.119 37.3881C248.224 37.4089 248.307 37.4819 248.403 37.5289C248.447 37.5522 248.501 37.5904 248.547 37.5897C248.78 37.5839 249.01 37.5659 249.244 37.5529C249.384 37.6232 249.501 37.7216 249.672 37.7496C249.78 37.7681 249.898 37.746 250.01 37.755C250.059 37.7592 250.12 37.7976 250.143 37.8298C250.156 37.8496 250.107 37.896 250.07 37.9187C249.931 38.0051 249.749 37.9814 249.582 38.0042C249.4 38.0287 249.239 38.0131 249.108 37.9142C249.021 37.8483 248.921 37.8109 248.807 37.8187C248.514 37.8391 248.223 37.8644 247.929 37.88C247.88 37.883 247.821 37.8591 247.777 37.8406C247.417 37.6802 247.417 37.6754 247.155 37.697C246.769 37.7284 246.769 37.7284 246.52 37.5914C246.472 37.5655 246.423 37.5179 246.38 37.5187C245.97 37.542 245.563 37.5654 245.155 37.6057C245.02 37.6175 244.929 37.6141 244.834 37.548C244.753 37.4919 244.659 37.4281 244.554 37.4098C244.446 37.3913 244.324 37.4229 244.207 37.4306C244.091 37.4383 243.965 37.465 243.865 37.442C243.76 37.4188 243.673 37.3481 243.585 37.2966C243.493 37.2426 243.391 37.2412 243.26 37.2556C242.855 37.2959 242.852 37.2886 242.464 37.1248C242.42 37.1062 242.361 37.0848 242.312 37.0877C242.018 37.1057 241.727 37.1311 241.434 37.1491C241.32 37.1569 241.213 37.1216 241.14 37.049C241.11 37.0189 241.124 36.9712 241.109 36.8767C241.086 36.8541 241.111 36.8936 241.116 36.93C241.169 36.9271 241.232 36.9343 241.272 36.9165C241.374 36.8745 241.427 36.8162 241.405 36.7647C241.393 36.7378 241.328 36.7016 241.286 36.7001C241.209 36.6972 241.138 36.7476 241.109 36.8767C240.882 36.9478 240.646 36.9559 240.415 36.9858C240.279 37.0049 240.196 36.9897 240.094 36.9233C239.973 36.8416 239.847 36.7622 239.637 36.793C239.409 36.8279 239.17 36.8262 238.936 36.8513C238.666 36.8798 238.564 36.659 238.338 36.6555C238.106 36.6517 237.871 36.6839 237.637 36.7041C237.432 36.7206 237.432 36.7206 237.02 36.5486C236.869 36.4851 236.68 36.5625 236.533 36.4967C236.434 36.4545 236.349 36.3935 236.253 36.3489C236.212 36.3305 236.146 36.328 236.092 36.3309C235.799 36.3489 235.502 36.3571 235.217 36.3996C234.893 36.4502 234.655 36.3738 234.436 36.2235C234.145 36.2392 233.853 36.2428 233.565 36.2778C233.355 36.3038 233.241 36.22 233.104 36.1498C233.056 36.1264 233.016 36.0887 232.964 36.0771C232.912 36.0656 232.848 36.0824 232.791 36.0876C232.557 36.1054 232.317 36.1085 232.089 36.1434C231.808 36.1884 231.715 35.9873 231.502 35.9552C231.35 36.0677 231.263 36.2259 230.977 36.2274C230.744 36.2283 230.51 36.2582 230.276 36.276C230.159 36.2837 230.042 36.2938 229.926 36.3016C229.738 36.3163 229.644 36.4068 229.673 36.5525C229.689 36.6326 229.702 36.7126 229.714 36.7926C229.741 36.9358 229.645 37.0528 229.496 37.0641C229.085 37.0946 228.678 37.1277 228.267 37.1534C228.158 37.1613 228.055 37.1165 227.971 37.0483C227.884 36.98 227.783 36.9474 227.67 36.9552C227.259 36.9857 226.852 37.0188 226.441 37.0445C226.395 37.0476 226.337 37.0213 226.293 37.0004C226.197 36.9534 226.105 36.8994 226.013 36.8502C225.78 36.8632 225.55 36.8691 225.32 36.8894C224.948 36.919 224.947 36.9214 224.685 36.7791C224.637 36.7532 224.591 36.7057 224.545 36.7064C224.369 36.7095 224.195 36.7271 224.018 36.7422C223.497 36.7855 223.497 36.7855 223.35 36.7077C223.217 36.6353 223.099 36.549 222.889 36.5797C222.662 36.6146 222.422 36.6201 222.188 36.6356C222.015 36.646 221.841 36.6588 221.668 36.6572C221.623 36.6579 221.576 36.6104 221.529 36.5845C221.393 36.5047 221.259 36.4395 221.063 36.4732C220.949 36.4931 220.829 36.4934 220.713 36.5011C220.408 36.5236 220.408 36.5235 219.921 36.3608C219.873 36.3445 219.814 36.3255 219.765 36.3309C219.354 36.359 218.946 36.392 218.536 36.4177C218.486 36.4207 218.427 36.4041 218.379 36.3902C217.832 36.2301 217.832 36.2301 217.237 36.2754C217.011 36.2911 217.003 36.3005 216.775 36.1642C216.673 36.105 216.587 36.0753 216.463 36.0875C215.995 36.128 215.525 36.1491 215.06 36.1993C214.851 36.2204 214.736 36.1438 214.599 36.0736C214.551 36.0502 214.502 36.0001 214.459 36.001C213.992 36.0294 213.524 36.0674 213.057 36.0958C213.015 36.0991 212.965 36.049 212.917 36.0255C212.825 35.9787 212.738 35.9104 212.633 35.892C212.525 35.8736 212.403 35.9052 212.283 35.9128C211.989 35.9332 211.989 35.9308 211.661 35.7763C211.616 35.7554 211.558 35.7267 211.512 35.7298C211.045 35.7606 210.575 35.7841 210.109 35.8367C209.843 35.8654 209.668 35.789 209.488 35.681C209.451 35.658 209.385 35.6458 209.335 35.6488C208.808 35.6846 208.283 35.7278 207.756 35.7636C207.646 35.7716 207.543 35.7268 207.459 35.661C207.325 35.5572 207.159 35.563 206.982 35.5781C206.574 35.6136 206.571 35.6111 206.339 35.4867C206.291 35.4609 206.251 35.428 206.199 35.414C206.15 35.4002 206.087 35.405 206.034 35.4079C205.8 35.4233 205.566 35.4411 205.332 35.4589C205.099 35.4767 204.862 35.4824 204.631 35.5148C204.346 35.5548 204.223 35.3935 204.03 35.3141C203.74 35.3346 203.443 35.3429 203.155 35.3828C202.935 35.4131 202.84 35.3035 202.699 35.2428C202.651 35.2218 202.601 35.1789 202.555 35.1821C202.027 35.2155 201.5 35.2537 200.975 35.2992C200.848 35.309 200.764 35.2866 200.663 35.2249C200.435 35.0863 200.424 35.0908 200.027 35.1242C199.854 35.1394 199.687 35.1525 199.546 35.0484C199.421 34.9546 199.265 34.9271 199.076 34.949C198.845 34.9766 198.609 34.987 198.375 35.0025C198.141 35.0203 197.907 35.0477 197.674 35.0511C197.487 35.0562 197.381 34.939 197.237 34.8758C197.193 34.8572 197.13 34.8525 197.077 34.8553C196.843 34.8683 196.603 34.8763 196.375 34.9088C196.098 34.9491 195.955 34.8112 195.766 34.727C195.725 34.7086 195.654 34.7156 195.601 34.7209C195.19 34.749 194.783 34.782 194.372 34.8126C194.232 34.7423 194.088 34.6743 193.948 34.604C193.715 34.6194 193.481 34.6372 193.247 34.6526C193.07 34.6653 192.89 34.6658 192.723 34.6958C192.505 34.7359 192.407 34.6189 192.266 34.5583C192.218 34.5372 192.168 34.4944 192.122 34.4975C191.828 34.5131 191.535 34.5311 191.244 34.5612C190.967 34.5919 190.872 34.3714 190.646 34.3654C190.414 34.3592 190.173 34.3816 189.945 34.4165C189.682 34.4573 189.504 34.3735 189.324 34.2632C189.287 34.2401 189.221 34.2256 189.171 34.2286C188.877 34.2466 188.587 34.2719 188.293 34.2899C188.244 34.2929 188.185 34.2787 188.136 34.2624C187.59 34.0999 187.59 34.0975 187.345 34.1173C187.172 34.1301 186.994 34.1476 186.818 34.1531C186.768 34.1561 186.71 34.1322 186.665 34.1113C186.309 33.951 186.309 33.9486 186.043 33.9676C185.81 33.9854 185.576 34.0032 185.342 34.0211C185.202 33.9508 185.058 33.8828 184.918 33.8125C184.628 33.833 184.331 33.8461 184.043 33.8787C183.909 33.893 183.821 33.8825 183.723 33.8186C183.601 33.7418 183.48 33.6529 183.266 33.6859C183.038 33.7208 182.799 33.7168 182.568 33.7443C182.291 33.7774 182.192 33.5544 181.971 33.5486C181.738 33.5423 181.497 33.5647 181.269 33.5996C181.006 33.6404 180.828 33.5567 180.648 33.4463C180.611 33.4233 180.545 33.4088 180.495 33.4117C179.851 33.4577 179.21 33.5037 178.565 33.5544C178.168 33.5855 178.168 33.5879 177.428 33.4277C177.375 33.4162 177.32 33.4045 177.267 33.4073C177.033 33.4203 176.793 33.4282 176.565 33.4607C176.288 33.501 176.145 33.3656 175.956 33.279C175.915 33.2606 175.848 33.2677 175.791 33.2704C175.614 33.2807 175.441 33.296 175.264 33.3087C175.03 33.3265 174.796 33.3443 174.562 33.3621C174.422 33.2943 174.279 33.2238 174.138 33.1559C173.848 33.1765 173.552 33.1823 173.264 33.2222C173.043 33.2526 172.947 33.1478 172.807 33.0847C172.759 33.0636 172.709 33.0208 172.663 33.0215C172.136 33.0549 171.608 33.0907 171.083 33.1387C170.867 33.1596 170.775 33.0477 170.635 32.987C170.587 32.9684 170.532 32.935 170.486 32.9381C170.136 32.9588 169.785 32.9868 169.435 33.0147C169.236 33.0314 169.236 33.0314 168.817 32.8664C168.768 32.8477 168.713 32.8288 168.664 32.8317C167.552 32.9109 166.443 32.9974 165.331 33.0766C165.218 33.0844 165.118 33.0445 165.034 32.9763C164.947 32.908 164.847 32.8705 164.734 32.8784C164.266 32.9116 163.796 32.9399 163.331 32.9853C163.139 33.0047 162.99 32.9678 162.865 32.8788C162.771 32.8126 162.681 32.7851 162.557 32.795C162.323 32.8152 162.09 32.8306 161.856 32.8484C161.622 32.8663 161.388 32.8841 161.154 32.9019C160.921 32.9197 160.684 32.9254 160.453 32.9578C160.168 32.9978 160.041 32.8436 159.852 32.7619C159.502 32.785 159.151 32.8081 158.804 32.8337C158.337 32.867 157.869 32.905 157.402 32.9358C157.359 32.9391 157.309 32.8938 157.261 32.8703C157.121 32.8049 157.021 32.7168 156.805 32.7353C155.756 32.824 154.701 32.8932 153.648 32.9794C153.429 32.9977 153.34 32.8908 153.196 32.83C153.148 32.8113 153.094 32.7756 153.048 32.7787C152.464 32.8172 151.879 32.8629 151.295 32.9063C151.057 32.924 151.057 32.924 150.673 32.7602C150.628 32.7417 150.57 32.7178 150.52 32.7208C149.759 32.7744 149.001 32.833 148.24 32.889C148.126 32.8969 148.026 32.8594 147.939 32.7911C147.855 32.7229 147.752 32.6829 147.642 32.6909C146.941 32.7419 146.237 32.7904 145.538 32.8488C145.351 32.8659 145.197 32.8385 145.069 32.747C144.978 32.6809 144.885 32.6509 144.764 32.6609C143.712 32.7399 142.661 32.8141 141.608 32.9003C141.406 32.9169 141.269 32.8659 141.147 32.7819C141.049 32.7155 140.962 32.7002 140.835 32.7052C140.7 32.7122 140.618 32.7356 140.539 32.805C140.438 32.8953 140.371 33.0109 140.146 33.0097C139.913 33.0083 139.676 33.0284 139.444 33.0608C139.224 33.0936 139.129 32.9815 138.996 32.9115C138.897 32.862 138.802 32.8513 138.671 32.8681C138.55 32.8829 138.473 32.921 138.398 32.9953C138.233 33.1531 138.219 33.1526 138.035 33.0421C137.937 32.983 137.848 32.9363 137.735 32.9418C137.268 32.9726 136.8 33.0082 136.333 33.0463C136.063 33.0676 136.06 33.0723 135.867 32.9446C135.772 32.8808 135.679 32.8484 135.562 32.8585C134.276 32.9553 132.991 33.0473 131.705 33.1513C131.506 33.168 131.376 33.1125 131.24 33.0351C131.196 33.0094 131.152 32.974 131.1 32.9624C131.048 32.9509 130.987 32.9583 130.931 32.961C129.996 33.0298 129.057 33.0938 128.125 33.1748C127.913 33.1934 127.805 33.1123 127.665 33.0444C127.617 33.0209 127.577 32.9857 127.525 32.9741C127.472 32.9649 127.408 32.9794 127.351 32.9845C126.416 33.0534 125.478 33.1173 124.546 33.1983C124.323 33.2165 124.234 33.112 124.093 33.0537C124.045 33.0327 123.995 32.9946 123.949 32.9977C123.655 33.0133 123.365 33.0387 123.071 33.059C122.369 33.1125 121.668 33.1612 120.967 33.217C120.698 33.2383 120.595 33.02 120.369 33.0212C120.077 33.0224 119.785 33.0598 119.491 33.0826C119.258 33.1004 119.024 33.1158 118.79 33.136C118.56 33.154 118.56 33.154 117.999 32.9933C117.95 32.9794 117.892 32.9604 117.842 32.9634C117.024 33.0221 116.203 33.0807 115.388 33.1468C115.2 33.1616 115.046 33.1438 114.918 33.0498C114.827 32.9838 114.731 32.9488 114.614 32.959C113.385 33.0506 112.159 33.1424 110.93 33.2317C110.884 33.2348 110.826 33.2085 110.781 33.1876C110.686 33.1406 110.594 33.0866 110.502 33.0374C110.428 33.0901 110.333 33.1372 110.284 33.198C110.215 33.2798 110.129 33.3007 109.995 33.3102C109.86 33.3196 109.776 33.3117 109.674 33.2452C109.553 33.1636 109.426 33.0986 109.217 33.1149C107.931 33.2189 106.646 33.3085 105.36 33.4101C105.147 33.4263 105.056 33.3168 104.911 33.256C104.863 33.2374 104.809 33.2088 104.763 33.212C104.235 33.2478 103.711 33.2885 103.183 33.3267C101.72 33.4362 100.258 33.5385 98.7982 33.6577C98.5324 33.6792 98.3569 33.6124 98.1771 33.502C98.1398 33.479 98.0738 33.4645 98.0242 33.4674C95.9772 33.6179 93.9299 33.7707 91.8863 33.9236C91.7765 33.9316 91.6734 33.8892 91.5895 33.8234C91.5022 33.7551 91.4022 33.72 91.2889 33.7279C90.3539 33.7967 89.419 33.8656 88.4838 33.9369C88.25 33.9547 88.2463 33.9569 88.0146 33.8326C87.9669 33.8067 87.917 33.7591 87.8781 33.7625C87.7964 33.7715 87.7152 33.8287 87.6537 33.9084C87.5919 33.9928 87.5024 34.0136 87.3713 34.0256C87.2365 34.0375 87.1491 34.027 87.0508 33.9655C86.9253 33.8885 86.8102 33.8143 86.5976 33.8305C83.9088 34.039 81.2208 34.2355 78.5322 34.4416C78.3162 34.4576 78.2241 34.353 78.0799 34.2922C78.0318 34.2735 77.9841 34.2476 77.9317 34.2409C77.8757 34.234 77.815 34.2462 77.7583 34.2513C73.3735 34.5775 68.9886 34.9061 64.6039 35.2322C64.3418 35.2514 64.3453 35.2516 64.0463 35.4622C64.0095 35.4873 63.9614 35.5217 63.9119 35.5247C62.5693 35.629 61.2234 35.7283 59.8776 35.8277C59.2932 35.8711 58.7087 35.9168 58.1245 35.9578C57.9156 35.9717 57.9156 35.9717 57.4032 36.2129C57.3596 36.233 57.3085 36.26 57.2589 36.263C54.9212 36.4388 52.5835 36.6145 50.2426 36.7853C50.0585 36.7978 49.908 36.8356 49.8163 36.9479C49.7513 37.0274 49.6708 37.0726 49.5539 37.0827C47.9175 37.205 46.2811 37.3297 44.6415 37.4471C44.4467 37.4616 44.3263 37.5246 44.2249 37.622C44.1911 37.6545 44.1605 37.6919 44.1133 37.7143C44.0697 37.7343 44.0059 37.7392 43.9527 37.7445C42.5502 37.849 41.1473 37.9583 39.7417 38.0554C39.5328 38.0694 39.4427 38.1552 39.3348 38.2452C39.2976 38.2751 39.2702 38.3175 39.2231 38.3374C39.1762 38.355 39.1093 38.3525 39.0528 38.3552C37.884 38.4419 36.7151 38.531 35.5463 38.6176C35.322 38.5972 35.2639 38.7349 35.1495 38.815C35.1089 38.8424 35.0784 38.8798 35.0315 38.8974C34.981 38.9148 34.9178 38.91 34.8577 38.9126C33.9227 38.9814 32.9873 39.0575 32.0492 39.1191C31.8333 39.1327 31.7833 39.2538 31.6619 39.3336C31.6215 39.3586 31.5803 39.3981 31.5341 39.4036C30.9494 39.4517 30.365 39.4951 29.7808 39.536C29.586 39.5504 29.5861 39.5481 29.2298 39.7734C29.1895 39.7984 29.1419 39.8256 29.0922 39.831C28.2171 39.8997 27.3389 39.9634 26.4604 40.0295C26.3471 40.0374 26.2661 40.0922 26.2046 40.1719C26.1431 40.2515 26.0589 40.3014 25.9456 40.3093C25.2442 40.3627 24.5427 40.4186 23.8418 40.4648C23.6471 40.4768 23.5167 40.5323 23.4254 40.6373C23.3569 40.7167 23.2769 40.7547 23.1529 40.7646C22.4517 40.8156 21.7501 40.8739 21.046 40.9152C20.8408 40.9268 20.73 41.0047 20.6392 41.1025C20.5671 41.1818 20.4879 41.2078 20.3569 41.2174C19.0714 41.3093 17.7825 41.4012 16.4997 41.5077C16.2835 41.5262 16.1798 41.438 16.043 41.3726C15.8479 41.281 15.6674 41.1827 15.6793 40.9951C15.6812 40.9663 15.6235 40.9304 15.5829 40.9048C15.2814 40.7128 15.2814 40.7128 15.2444 40.5186C15.2238 40.3997 15.1998 40.2783 15.1829 40.1571C15.1497 39.9583 15.0404 39.9036 14.7145 39.9276C14.5977 39.9353 14.4806 39.9478 14.3639 39.9531C14.1905 39.9635 14.0655 39.8793 14.0431 39.7339C14.0305 39.6539 14.0145 39.5737 14.002 39.4937C14.1791 39.481 14.1756 39.4785 14.5037 39.1991C14.6416 39.0813 14.6417 39.0813 14.3998 38.9493C14.3078 38.9001 14.2195 38.8462 14.1203 38.7991C14.0758 38.7782 14.0168 38.764 13.9673 38.7669C13.6736 38.7849 13.3831 38.8079 13.0925 38.8308C12.625 38.8664 12.6249 38.8664 12.1693 38.6036C12.1319 38.5829 12.0744 38.5447 12.0826 38.5257C12.127 38.4382 12.2244 38.4032 12.3446 38.398C12.5213 38.3901 12.6952 38.3725 12.8687 38.3597C12.9855 38.352 13.1025 38.3419 13.2193 38.3342C13.3342 38.2469 13.4524 38.1621 13.5604 38.0721C13.7314 37.9338 13.7316 37.929 13.5165 37.8198C13.3801 37.7472 13.2327 37.6815 13.0925 37.6136C12.919 37.6264 12.7418 37.6415 12.5684 37.6519C12.349 37.6654 12.264 37.6165 12.2177 37.4581C12.1772 37.3192 12.2445 37.2036 12.4151 37.181C12.5893 37.1586 12.7523 37.1454 12.8481 37.026C12.94 36.9113 13.0906 36.8711 13.2741 36.8683C13.3906 36.8654 13.5077 36.8529 13.6247 36.8428C13.7771 36.8292 13.8658 36.7095 13.8429 36.5713C13.831 36.4817 13.8006 36.4058 13.6647 36.3815C13.0617 36.2747 13.0544 36.2768 12.7624 36.1021C12.7352 36.0866 12.7169 36.0425 12.7289 36.0213C12.7487 35.9859 12.7908 35.9344 12.8335 35.9287C13.2413 35.8909 13.6487 35.8578 14.0554 35.8368C14.1898 35.8298 14.2894 35.8166 14.3408 35.7293C14.4119 35.609 14.391 35.495 14.2733 35.4062C14.2363 35.3783 14.1751 35.3423 14.1327 35.3432C13.6657 35.3692 13.2016 35.4073 12.7346 35.4333C12.6921 35.4366 12.6174 35.3928 12.6018 35.3609C12.5703 35.3019 12.6279 35.2269 12.7527 35.205C12.9167 35.175 13.0822 35.1787 13.1989 35.0626C13.361 34.8974 13.5573 34.7481 13.7365 34.5909C13.7665 34.563 13.8158 34.5094 13.8056 34.5042C13.721 34.448 13.6216 34.4034 13.5334 34.3495C13.3841 34.2596 13.3915 34.1417 13.4339 34.03C13.4679 33.9397 13.5757 33.9076 13.7058 33.9124C13.7621 33.9145 13.8324 33.9171 13.8795 33.8972C14.0024 33.8487 14.0454 33.7828 13.9888 33.7301C13.9555 33.6999 13.8949 33.6567 13.8524 33.66C13.0947 33.7113 12.3337 33.7601 11.5783 33.8308C11.3549 33.8514 11.2589 33.7563 11.1294 33.6864C11.0306 33.6321 10.9368 33.6093 10.8079 33.6407C10.6862 33.6699 10.5714 33.6464 10.5026 33.5643C10.447 33.4971 10.556 33.4457 10.8448 33.3938C10.8984 33.3837 10.9586 33.3787 10.9988 33.3561C11.4233 33.1116 11.4234 33.1092 11.7069 33.086C11.9832 33.0649 11.9834 33.0625 12.1365 32.9284C12.2075 32.866 12.2854 32.8038 12.353 32.7388C12.3793 32.7133 12.4246 32.6668 12.4115 32.6518C12.3388 32.5744 12.2344 32.5537 12.1102 32.5659C11.8333 32.5966 11.512 32.5509 11.3532 32.774C11.2914 32.8584 11.202 32.8792 11.0745 32.8889C9.79253 32.981 8.50995 33.0828 7.22481 33.1699C7.01595 33.1839 6.91538 33.2693 6.82821 33.3649C6.75266 33.444 6.67374 33.4652 6.53919 33.4747C6.40464 33.4841 6.29863 33.4874 6.22632 33.4052C6.18367 33.3554 6.22666 33.2895 6.33645 33.2261C6.4938 33.1355 6.47332 33.0142 6.4313 32.8994C6.40089 32.8235 6.29525 32.7666 6.17889 32.7671C6.00596 32.7703 5.83903 32.7906 5.70098 32.689C5.62011 32.6306 5.51705 32.5882 5.42516 32.5365C5.24858 32.4311 5.07215 32.3234 4.81129 32.3787C4.63699 32.3481 4.51943 32.257 4.38306 32.1844C4.1545 32.0651 4.13447 32.0474 4.31078 31.9359C4.50912 31.8107 4.37243 31.6321 4.48622 31.5061C4.60764 31.3708 4.77025 31.254 4.91568 31.1292C4.95299 31.0969 4.98665 31.0668 5.02396 31.0344C4.94615 30.9833 4.87615 30.9205 4.78334 30.8833C4.66302 30.8354 4.60309 30.7802 4.61963 30.6313C4.5964 30.6088 4.60335 30.6645 4.63056 30.6799C4.66129 30.6955 4.73948 30.6864 4.77924 30.671C4.88062 30.629 4.93363 30.5707 4.91224 30.5193C4.89986 30.4923 4.83524 30.4562 4.79304 30.4546C4.71567 30.4517 4.64549 30.5021 4.61611 30.6312C4.21596 30.7151 3.80489 30.7481 3.3945 30.7714C3.352 30.7746 3.30235 30.7245 3.25465 30.6987C3.09809 30.6109 3.09792 30.6133 2.6247 30.5716C2.57562 30.5673 2.51099 30.5312 2.48852 30.4966C2.39589 30.3461 2.40971 30.1851 2.37044 30.027C2.46832 29.9294 2.56597 29.8342 2.66721 29.7392C2.86983 29.5467 3.12725 29.3803 3.28891 29.167C3.26477 29.0479 3.23008 28.9285 3.39095 28.8381C3.8382 28.7342 3.83471 28.7341 3.96163 28.6231C4.32361 28.3088 4.6822 27.9919 5.05793 27.6829C5.15825 27.6023 5.16117 27.5566 4.99467 27.5142C4.94254 27.5027 4.88635 27.4982 4.82978 27.5009C4.65287 27.5112 4.47428 27.5479 4.30258 27.5319C4.13072 27.5182 4.01087 27.4077 3.87434 27.3376C3.73445 27.2649 3.59472 27.1898 3.45499 27.1147C3.28924 27.1157 3.1197 27.1769 2.96132 27.0626C2.84008 26.9737 2.68568 26.9077 2.54594 26.8326C2.66661 26.6539 2.87951 26.522 3.04803 26.3668C3.20157 26.2255 3.20485 26.228 3.59889 26.1294C3.78513 26.0833 3.86577 25.8139 3.71609 25.7288C3.53585 25.6257 3.34463 25.5294 3.16056 25.4309C2.99481 25.432 2.8219 25.4907 2.67056 25.3766C2.55269 25.2902 2.41552 25.2297 2.20956 25.2533C1.86155 25.2934 1.50821 25.3068 1.1573 25.3371C1.03681 25.3471 0.907271 25.3327 0.859736 25.2489C0.828249 25.1899 0.935301 25.1144 1.05242 25.1018C1.22979 25.0843 1.38986 25.0614 1.48545 24.9444C1.57752 24.8273 1.73453 24.797 1.91847 24.787C1.96801 24.784 2.02616 24.7572 2.05262 24.7293C2.18811 24.5945 2.33646 24.4795 2.60693 24.4944C2.72253 24.4505 2.78611 24.3926 2.75463 24.3336C2.73552 24.3015 2.66432 24.2579 2.62181 24.2612C2.32839 24.2744 2.03499 24.2875 1.74738 24.3202C1.61252 24.3345 1.51017 24.3355 1.43037 24.2602C1.37366 24.2099 1.40944 24.1461 1.52642 24.0806C1.62872 24.0241 1.66134 23.9555 1.65952 23.8734C1.65405 23.6828 1.55206 23.6236 1.21369 23.6231C0.970425 23.6236 0.912632 23.5902 0.87031 23.4247C0.858698 23.3857 0.826966 23.3315 0.85327 23.3059C1.01491 23.148 1.12627 22.9497 1.41603 22.8834C1.5304 22.8587 1.64992 22.8632 1.72424 22.8032C1.79856 22.7433 1.86649 22.6735 1.94418 22.6162C2.04021 22.5474 2.10774 22.4825 2.06846 22.4352C2.00334 22.3509 1.8913 22.3395 1.75934 22.3635C1.64528 22.3833 1.52556 22.3813 1.40859 22.3914C1.19942 22.4101 1.03465 22.3413 1.01678 22.2346C0.96775 21.9532 0.915031 21.674 0.873037 21.3929C0.868151 21.3589 0.888447 21.3163 0.918421 21.2885C1.02333 21.1911 1.135 21.0989 1.24327 21.0041C1.37005 20.8955 1.5586 20.9242 1.72175 20.9086C1.95232 20.8859 1.95209 20.8882 2.27276 20.6688C2.39816 20.5819 2.60335 20.6257 2.73165 20.5485C2.77202 20.5235 2.83456 20.4824 2.82555 20.458C2.81347 20.4262 2.74471 20.3995 2.69288 20.3831C2.64457 20.3669 2.58526 20.3574 2.53205 20.3627C1.88757 20.4086 1.24631 20.4595 0.601987 20.503C0.492203 20.511 0.376007 20.4536 0.342078 20.3776C0.307842 20.3065 0.323726 20.2227 0.321754 20.1431C0.430025 20.0483 0.551857 19.9612 0.646521 19.8587C0.718552 19.7794 0.798233 19.7462 0.932173 19.7464C1.10847 19.7457 1.28264 19.7232 1.48095 19.7089C1.86908 19.3715 2.25122 19.0169 2.66747 18.6805C2.83477 18.5445 2.80535 18.3988 2.84666 18.2484C2.88721 18.1101 3.12143 18.1406 3.28229 18.1056C3.41103 18.0766 3.45809 18.0012 3.41223 17.9465C3.38609 17.9142 3.32512 17.8758 3.27589 17.8739C3.15984 17.8696 3.04241 17.8869 2.9256 17.8946C2.80878 17.9024 2.67561 17.8902 2.57805 17.9275C2.48417 17.9626 2.41914 18.0421 2.35491 18.1096C2.28318 18.1841 2.19364 18.2073 2.0597 18.2071C1.88708 18.2055 1.71339 18.2207 1.54 18.2312C1.35608 18.1303 1.16493 18.0316 0.988354 17.9262C0.954414 17.9057 0.95087 17.8501 0.956687 17.8142C0.969701 17.7207 0.920646 17.661 0.80751 17.611C0.711497 17.5688 0.634134 17.5105 0.545767 17.459C0.620241 17.3967 0.701624 17.3371 0.762338 17.2694C0.894776 17.1273 1.05627 17.0273 1.32323 17.0421C1.43471 16.9522 1.52645 16.8399 1.66774 16.7801C1.80185 16.7224 2.01942 16.7931 2.12693 16.6549C2.18061 16.587 2.25957 16.5104 2.35636 16.4851C2.51049 16.445 2.70588 16.4764 2.80239 16.345C2.86004 16.2701 2.94183 16.2032 3.04504 16.1877C3.16247 16.1704 3.28231 16.1701 3.36962 16.1275C3.41687 16.1052 3.46857 16.0685 3.47071 16.0349C3.4721 16.0132 3.40396 15.9769 3.35565 15.9607C3.31101 15.9421 3.25192 15.9279 3.19887 15.9307C3.02211 15.9386 2.84811 15.9587 2.67136 15.9666C2.62182 15.9695 2.56664 15.9506 2.51481 15.9342C2.36253 15.89 2.37613 15.8423 2.50473 15.7603C2.63318 15.6807 2.72805 15.5758 2.83632 15.481C2.94993 15.4683 3.09011 15.4808 3.1704 15.438C3.30527 15.3683 3.40358 15.2634 3.51506 15.1736C3.63203 15.1635 3.75189 15.1631 3.8626 15.1407C3.90893 15.1328 3.93342 15.0807 3.97409 15.0509C4.04826 14.9934 4.11361 14.909 4.2104 14.8837C4.3679 14.8462 4.55672 14.8701 4.65659 14.7412C4.71425 14.6662 4.80031 14.5875 4.89909 14.5864C5.174 14.5869 5.29849 14.459 5.44713 14.3392C5.55861 14.2493 5.78062 14.3058 5.90265 14.2163C5.98385 14.1591 6.0449 14.0866 6.12595 14.0318C6.15913 14.0089 6.22669 13.9994 6.2799 13.9942C6.57057 13.9688 6.86413 13.9532 7.15495 13.9255C7.20113 13.92 7.24566 13.8855 7.28267 13.8579C7.3605 13.7981 7.41169 13.7133 7.50573 13.6758C7.59977 13.6383 7.72987 13.6432 7.84317 13.6353C8.20769 13.6127 8.23524 13.6234 8.41356 13.4251C8.55777 13.2642 8.87735 13.3942 8.99802 13.2155C9.06807 13.112 9.18958 13.0298 9.39783 13.0255C9.69079 13.0195 9.98207 12.9846 10.2759 12.9641C10.538 12.945 10.5345 12.9448 10.8301 12.7317C10.9631 12.6354 11.1486 12.6568 11.3152 12.6437C11.4922 12.631 11.6558 12.6081 11.7479 12.4911C11.8398 12.3764 11.997 12.3436 12.1774 12.3335C12.3437 12.3228 12.5294 12.3418 12.6656 12.2504C12.9969 12.0313 12.9935 12.0288 13.2166 12.013C13.5672 11.9875 13.9178 11.9619 14.2685 11.934C14.5023 11.9162 14.7453 11.9204 14.9667 11.8756C15.1274 11.843 15.2063 11.711 15.3143 11.621C15.6049 11.5957 15.8956 11.5703 16.1861 11.5474C16.5936 11.5143 17.0043 11.4862 17.4151 11.4557C17.5968 11.3709 17.6343 11.1698 17.9303 11.1712C18.1065 11.1729 18.2808 11.1481 18.4578 11.1354C18.7519 11.1126 19.043 11.08 19.3359 11.074C19.5583 11.0703 19.6052 10.9418 19.7264 10.8644C19.767 10.837 19.8048 10.7974 19.8509 10.7919C20.3124 10.7416 20.7845 10.7447 21.2374 10.6627C21.2838 10.6548 21.3292 10.6059 21.342 10.5702C21.3503 10.5512 21.2928 10.5129 21.2552 10.4947C21.2107 10.4737 21.1522 10.4523 21.1026 10.4552C19.64 10.5623 18.1772 10.6718 16.7145 10.7789C16.509 10.7953 16.5092 10.7929 15.9965 11.039C15.9529 11.0591 15.9021 11.0813 15.8489 11.0865C15.6149 11.1067 15.3782 11.1148 15.1474 11.1424C14.9591 11.1643 14.8063 11.1297 14.6782 11.0381C14.5872 10.9721 14.4899 10.9492 14.3701 10.9496C14.236 10.9518 14.1464 10.975 14.0649 11.037C13.9572 11.1222 13.8971 11.2357 13.6811 11.2517C12.6863 11.3184 11.6907 11.397 10.699 11.471C10.564 11.4322 10.5004 11.3793 10.5394 11.3205C10.5628 11.2852 10.6081 11.2386 10.6506 11.2354C11.0582 11.2 11.4689 11.1719 11.8764 11.1388C11.9331 11.1337 12.0101 11.1413 12.0433 11.1185C12.205 11.016 12.2725 10.8426 12.5651 10.8414C12.7344 10.8405 12.909 10.8108 13.0729 10.7832C13.1192 10.7753 13.1647 10.7263 13.1775 10.6907C13.1823 10.6716 13.1283 10.6334 13.0872 10.615C12.9369 10.5395 12.7522 10.617 12.6005 10.5632C12.5488 10.5444 12.4765 10.5176 12.4678 10.4883C12.4624 10.4616 12.525 10.4205 12.5689 10.3956C12.6091 10.373 12.6632 10.3534 12.7164 10.3481C13.1841 10.3101 13.6521 10.2696 14.119 10.2436C14.31 10.2339 14.4474 10.1787 14.5389 10.0712C14.6074 9.99182 14.6875 9.95143 14.8079 9.94385C15.6259 9.8851 16.4445 9.81673 17.2656 9.76533C17.4708 9.75368 17.5814 9.67826 17.6724 9.578C17.7444 9.49873 17.8236 9.47275 17.9547 9.46316C19.1267 9.38142 20.2925 9.285 21.4642 9.20807C21.6801 9.19441 21.75 9.09336 21.8647 9.00844C21.9054 8.97862 21.9324 8.94106 21.9828 8.92366C22.0333 8.90625 22.0965 8.91099 22.1565 8.9084C23.0915 8.83954 24.0271 8.76349 24.9651 8.70197C25.1845 8.68844 25.2343 8.56976 25.3522 8.48979C25.3926 8.46477 25.4305 8.42281 25.4767 8.4173C26.1782 8.36145 26.8794 8.3104 27.5808 8.25695C28.0484 8.22132 28.5159 8.18568 28.9833 8.15245C29.2135 8.13691 29.2136 8.13449 29.5377 7.91756C29.5745 7.89242 29.6258 7.86299 29.672 7.85747C31.0181 7.75329 32.3602 7.65622 33.7062 7.55444C33.8195 7.5466 33.9039 7.49428 33.9654 7.41461C34.0269 7.33495 34.1114 7.28265 34.2212 7.27468C35.2733 7.19331 36.3252 7.11434 37.3804 7.04031C37.5715 7.02814 37.7088 6.97539 37.8001 6.87032C37.8686 6.79092 37.9487 6.75053 38.0691 6.74295C39.1209 6.66638 40.1732 6.58259 41.2282 6.51096C41.4301 6.49678 41.5337 6.41869 41.6383 6.32617C41.6756 6.29381 41.7073 6.23955 41.7498 6.23631C42.2745 6.18834 42.7959 6.13783 43.3228 6.11164C43.5421 6.10051 43.6224 6.00226 43.7165 5.90935C43.7917 5.83501 43.8743 5.81158 44.0085 5.80693C44.3018 5.79615 44.5928 5.76601 44.8802 5.73573C44.9229 5.73009 44.979 5.67914 44.9847 5.64561C44.9957 5.58335 44.9175 5.53705 44.7853 5.51044C43.3827 5.61493 41.9767 5.71928 40.5741 5.82378C40.3438 5.84173 40.3438 5.84174 40.0198 6.05867C39.9829 6.08381 39.9317 6.11324 39.882 6.11863C38.536 6.2204 37.1937 6.31991 35.8477 6.42169C35.7344 6.42953 35.65 6.48182 35.5885 6.56149C35.527 6.64115 35.4426 6.69345 35.3328 6.70141C34.047 6.7982 32.7611 6.89741 31.4723 6.98685C31.2812 6.99902 31.1441 7.04933 31.0526 7.15681C30.9841 7.23621 30.904 7.27663 30.7837 7.28421C29.5548 7.37347 28.3289 7.47006 27.0968 7.55439C26.973 7.56183 26.8861 7.48869 26.8972 7.42403C26.9029 7.3905 26.9591 7.33717 27.0016 7.33393C27.6432 7.27826 28.2815 7.22004 28.9253 7.18374C29.1411 7.17248 29.2111 7.06903 29.3258 6.98411C29.3629 6.95416 29.3937 6.91433 29.4405 6.8992C29.4909 6.88179 29.5541 6.88656 29.6142 6.88397C31.1337 6.76937 32.6534 6.65237 34.1759 6.54751C34.3954 6.53157 34.4451 6.4153 34.563 6.33532C34.6035 6.30791 34.6415 6.26594 34.6875 6.26284C35.1554 6.22239 35.6228 6.18916 36.0902 6.15593C36.9084 6.09477 37.7265 6.03361 38.5482 5.97259C38.7855 5.9549 38.7855 5.95489 39.1024 5.74011C39.1392 5.71496 39.1907 5.68315 39.2367 5.68005C41.4009 5.51711 43.5651 5.35417 45.7291 5.19365C45.8424 5.18581 45.9268 5.13351 45.9883 5.05385C46.0496 4.97659 46.1341 4.92188 46.2441 4.91151C49.1697 4.69254 52.0918 4.47343 55.0171 4.25927C55.2084 4.24469 55.3452 4.19916 55.4368 4.08928C55.5018 4.00975 55.5855 3.96948 55.706 3.9595C58.9219 3.72 62.1379 3.4805 65.3576 3.23873C67.5216 3.0782 69.6859 2.91286 71.8497 2.75714C72.048 2.74283 72.1582 2.67219 72.2629 2.57726C72.2967 2.54478 72.3319 2.49064 72.3744 2.4874C72.839 2.44443 73.3031 2.40627 73.7674 2.3681C73.9074 2.43839 74.0476 2.50628 74.1876 2.57657C74.3025 2.48925 74.414 2.39939 74.5289 2.31207C75.2296 2.26824 75.9222 2.18554 76.6277 2.17804C76.6736 2.17734 76.7199 2.22486 76.7676 2.25074C77.085 2.4144 77.2721 2.40931 77.4925 2.21504C77.5709 2.14565 77.6384 2.08308 77.7517 2.07524C78.1026 2.04491 78.4562 2.02913 78.804 1.99146C78.9921 1.97194 79.1452 2.00174 79.2733 2.09327C79.3643 2.15933 79.4611 2.18946 79.5781 2.17935C80.2227 2.13102 80.8637 2.08495 81.5086 2.03182C81.5546 2.02871 81.5994 1.98938 81.6364 1.96183C81.7142 1.90206 81.7819 1.8371 81.8563 1.77479C81.9487 1.8192 82.0522 1.8544 82.1262 1.91018C82.2207 1.97636 82.3121 1.97975 82.4468 1.96789C85.0184 1.7719 87.5932 1.58327 90.165 1.38488C90.3845 1.36895 90.4731 1.47349 90.6174 1.53188C90.6654 1.55295 90.7131 1.57882 90.7655 1.58559C90.8215 1.59249 90.8822 1.5803 90.9389 1.57518C92.8693 1.43006 94.7996 1.28734 96.7299 1.14222C96.985 1.12278 96.985 1.12278 97.3518 1.28587C97.3963 1.30681 97.4547 1.33068 97.5043 1.32529C98.3825 1.26396 99.261 1.19542 100.136 1.13154C100.249 1.12371 100.342 1.16571 100.44 1.22481C100.634 1.34048 100.648 1.34101 100.805 1.18779C100.881 1.11587 100.957 1.0729 101.075 1.05558C101.203 1.03624 101.304 1.04728 101.4 1.09423C101.537 1.15957 101.633 1.26435 101.849 1.24588C102.784 1.1674 103.722 1.10829 104.654 1.02728C104.867 1.00868 104.974 1.09462 105.111 1.15997C105.159 1.18344 105.203 1.21881 105.255 1.22798C105.307 1.23716 105.372 1.22267 105.428 1.21754C106.597 1.13087 107.769 1.04675 108.935 0.950319C109.155 0.931979 109.243 1.03889 109.388 1.09729C109.436 1.11836 109.49 1.15413 109.536 1.15102C110.237 1.10238 110.942 1.04905 111.643 0.995596C111.895 0.976029 111.894 0.978431 112.265 1.13924C112.309 1.16018 112.368 1.18165 112.417 1.17867C113.235 1.11992 114.057 1.05889 114.875 0.997739C115.127 0.978172 115.127 0.978178 115.84 1.13004C115.892 1.14162 115.947 1.15816 116 1.15531C116.935 1.08645 117.874 1.02011 118.809 0.944035C118.997 0.929327 119.15 0.954316 119.279 1.04585C119.369 1.11191 119.466 1.14203 119.583 1.13192C120.635 1.05295 121.69 0.978927 122.739 0.89261C122.941 0.876021 123.068 0.93374 123.204 1.00871C123.248 1.03446 123.292 1.06983 123.344 1.08141C123.396 1.09299 123.457 1.08559 123.513 1.08047C124.565 1.0015 125.62 0.929874 126.669 0.841153C126.882 0.822551 126.989 0.908492 127.126 0.973841C127.174 0.997315 127.224 1.04256 127.266 1.04173C127.677 1.01602 128.087 0.995143 128.495 0.950072C128.716 0.924518 128.804 1.03865 128.948 1.09704C128.996 1.11571 129.05 1.15389 129.096 1.15078C129.974 1.08944 130.853 1.02331 131.728 0.954625C131.852 0.944775 131.942 0.969798 132.036 1.03598C132.161 1.12499 132.31 1.16428 132.502 1.14489C132.91 1.10463 133.32 1.08134 133.731 1.05083C133.972 1.03327 133.972 1.03328 134.695 1.18554C134.747 1.19712 134.803 1.21363 134.856 1.21078C135.557 1.15974 136.261 1.11123 136.959 1.05284C137.147 1.03573 137.301 1.06312 137.429 1.15466C137.52 1.22071 137.613 1.25071 137.734 1.24073C138.378 1.1924 139.019 1.14394 139.664 1.09561C139.898 1.07779 140.133 1.04073 140.365 1.04936C140.534 1.05805 140.649 1.17804 140.797 1.24138C140.838 1.25978 140.909 1.24318 140.966 1.24047C141.784 1.17931 142.605 1.12549 143.421 1.05218C143.634 1.03358 143.741 1.11952 143.878 1.18487C143.926 1.20835 143.976 1.25359 144.018 1.25276C144.311 1.23717 144.602 1.21182 144.896 1.19142C145.247 1.1659 145.6 1.15012 145.948 1.11004C146.232 1.07722 146.324 1.29035 146.549 1.30593C146.721 1.31956 146.899 1.28523 147.073 1.2724C147.423 1.24688 147.774 1.21655 148.125 1.19584C148.248 1.18839 148.346 1.15344 148.39 1.06831C148.398 1.05174 148.341 1.01346 148.303 0.990378C147.851 0.727704 147.851 0.72769 147.377 0.763061C147.083 0.785867 146.792 0.808811 146.498 0.826808C146.449 0.829786 146.394 0.808457 146.346 0.792198C146.208 0.746086 146.225 0.698521 146.35 0.616401C146.475 0.534282 146.573 0.431887 146.681 0.33709C146.821 0.404975 146.958 0.47271 147.098 0.540594C147.215 0.532888 147.332 0.522799 147.449 0.515093C148.033 0.474158 148.618 0.430814 149.202 0.394689C149.244 0.39145 149.294 0.441511 149.341 0.467389C149.478 0.542357 149.6 0.607168 149.806 0.588305C150.331 0.537932 150.858 0.506927 151.382 0.466173C151.613 0.448226 151.613 0.448229 152.004 0.612232C152.049 0.630765 152.107 0.652227 152.157 0.649249C152.684 0.613435 153.209 0.572688 153.736 0.53447C153.85 0.526633 153.957 0.561949 154.033 0.634693C154.063 0.664727 154.053 0.712548 154.161 1.11188C154.556 1.44714 154.843 1.42409 155.133 1.40596C155.257 1.39851 155.367 1.39053 155.451 1.34545C155.495 1.32057 155.55 1.28405 155.552 1.25279C155.553 1.22874 155.478 1.18739 155.429 1.18075C155.084 1.1197 154.747 1.20841 154.405 1.21736C154.246 1.22109 154.114 1.13183 154.095 0.993716C154.09 0.95498 154.082 0.91371 154.074 0.874843C154.066 0.835976 154.062 0.79484 154.054 0.755974C153.917 0.738848 153.834 0.779115 153.769 0.858649C153.715 0.924148 153.64 0.998478 153.543 1.03102C153.445 1.06596 153.315 1.05392 153.199 1.06162C153.085 1.06946 152.96 1.09614 152.856 1.07538C152.752 1.05222 152.672 0.979331 152.576 0.932384C152.532 0.909041 152.477 0.875701 152.431 0.878809C152.024 0.904643 151.621 0.930593 151.217 0.968581C151.004 0.989587 150.905 0.884682 150.775 0.81719C150.673 0.765172 150.566 0.773253 150.542 0.883213C150.479 1.14602 150.634 1.26265 150.996 1.2255C151.294 1.1932 151.562 1.19596 151.783 1.36811C151.814 1.39093 151.887 1.40329 151.933 1.40018C152.223 1.38205 152.51 1.35657 152.8 1.33845C152.853 1.3356 152.909 1.3473 152.958 1.35875C153.667 1.51529 153.667 1.51771 153.911 1.49788C154.028 1.48777 154.141 1.47993 154.154 1.11403C154.401 0.730311 154.754 0.716949 155.099 0.671927C155.323 0.6441 155.411 0.753439 155.551 0.81411C155.599 0.835178 155.65 0.87561 155.696 0.872502C156.457 0.821277 157.215 0.765098 157.973 0.704123C158.101 0.694405 158.191 0.712236 158.286 0.77842C158.407 0.862483 158.545 0.918225 158.747 0.896826C159.152 0.854029 159.562 0.833143 159.973 0.800226C160.182 0.783899 160.182 0.783875 160.591 0.948531C160.635 0.967064 160.694 0.988526 160.743 0.985548C161.154 0.959845 161.562 0.924411 161.969 0.896172C162.082 0.888336 162.182 0.925789 162.266 0.993985C162.35 1.06218 162.453 1.09977 162.563 1.0918C162.973 1.06369 163.381 1.03066 163.788 1.00242C163.838 0.999445 163.896 1.0185 163.941 1.03703C164.36 1.20208 164.36 1.20206 164.559 1.18534C164.85 1.16 165.146 1.15417 165.434 1.11668C165.715 1.07892 165.85 1.22374 166.035 1.30775C166.559 1.27181 167.086 1.24562 167.607 1.19753C167.82 1.17652 167.928 1.26005 168.064 1.32781C168.112 1.35128 168.158 1.3988 168.204 1.3981C168.381 1.39502 168.555 1.37499 168.728 1.36216C168.902 1.34934 169.079 1.33664 169.252 1.32382C169.445 1.40088 169.565 1.56923 169.85 1.52439C170.02 1.49701 170.2 1.49646 170.374 1.48364C170.547 1.47081 170.724 1.45812 170.898 1.44529C171.015 1.43758 171.135 1.43481 171.249 1.41735C171.458 1.389 171.553 1.51064 171.697 1.56903C171.745 1.5877 171.8 1.61863 171.846 1.61552C172.196 1.59481 172.55 1.57904 172.894 1.53642C173.161 1.50295 173.336 1.58177 173.516 1.6897C173.553 1.71278 173.619 1.72729 173.668 1.72431C174.079 1.69861 174.487 1.66314 174.894 1.6349C175.004 1.62693 175.107 1.66933 175.191 1.73512C175.278 1.80345 175.378 1.83853 175.491 1.83069C175.898 1.80245 176.309 1.76952 176.717 1.74128C176.766 1.73831 176.825 1.75977 176.869 1.78071C177.253 1.94445 177.253 1.94686 177.487 1.92664C177.544 1.92151 177.604 1.91891 177.661 1.91379C177.951 1.89085 178.251 1.88997 178.536 1.84272C178.864 1.78983 179.094 1.88036 179.314 2.02593C179.604 2.0078 179.901 2.00195 180.185 1.96432C180.398 1.9361 180.505 2.03166 180.642 2.09701C180.69 2.12049 180.74 2.16573 180.782 2.16249C181.193 2.13679 181.603 2.11591 182.008 2.07071C182.228 2.04515 182.316 2.15688 182.46 2.21768C182.508 2.23875 182.559 2.27439 182.605 2.27128C182.838 2.26068 183.072 2.24045 183.306 2.22263C183.579 2.20144 183.578 2.20384 183.928 2.36387C184.092 2.43988 184.264 2.39086 184.431 2.38017C184.608 2.36748 184.774 2.3592 184.908 2.46303C184.992 2.52882 185.095 2.57122 185.205 2.56566C185.439 2.55265 185.675 2.53978 185.906 2.51222C186.091 2.49016 186.248 2.51528 186.376 2.60922C186.467 2.67527 186.563 2.71022 186.68 2.70011C187.205 2.66176 187.732 2.62111 188.256 2.58517C188.302 2.58206 188.364 2.60606 188.405 2.62927C188.501 2.67622 188.593 2.72784 188.685 2.77946C188.915 2.76632 189.151 2.7655 189.378 2.7402C189.619 2.71543 189.838 2.71152 190.016 2.85071C190.053 2.881 190.107 2.92395 190.152 2.92325C190.329 2.92017 190.503 2.90254 190.676 2.88972C190.85 2.87689 191.027 2.8642 191.2 2.85137C191.397 2.91894 191.513 3.09679 191.798 3.05195C191.968 3.02456 192.148 3.02402 192.322 3.01119C192.495 2.99837 192.673 2.98327 192.846 2.97285C192.903 2.97013 192.967 2.96045 193.015 2.9719C193.067 2.98349 193.111 3.01886 193.155 3.0446C193.291 3.11957 193.417 3.19416 193.62 3.16073C193.791 3.13335 193.971 3.13281 194.144 3.11757C194.382 3.09989 194.382 3.09989 194.762 3.26591C194.917 3.33432 195.101 3.25923 195.249 3.31776C195.349 3.35762 195.433 3.421 195.529 3.46554C195.57 3.48394 195.636 3.49363 195.686 3.49065C195.919 3.47765 196.156 3.46478 196.387 3.43722C196.575 3.41529 196.728 3.4499 196.853 3.54131C196.944 3.60736 197.037 3.63736 197.158 3.62738C197.742 3.58164 198.326 3.5455 198.908 3.49241C199.106 3.47328 199.262 3.52006 199.365 3.61068C199.542 3.7667 199.817 3.60098 200.003 3.72841C200.118 3.8074 200.232 3.89842 200.452 3.87046C200.857 3.82286 201.267 3.80435 201.674 3.77611C201.814 3.8464 201.954 3.9167 202.098 3.98712C202.332 3.96931 202.565 3.95147 202.799 3.93606C202.973 3.92323 203.15 3.90814 203.323 3.89771C203.38 3.895 203.44 3.8876 203.492 3.90159C203.544 3.91557 203.584 3.94841 203.632 3.97429C203.867 4.10114 203.867 4.10356 204.271 4.07038C204.445 4.05515 204.611 4.04687 204.749 4.14842C204.877 4.24236 205.034 4.26507 205.219 4.24542C205.566 4.21015 205.917 4.18704 206.271 4.16646C206.38 4.15849 206.48 4.20316 206.567 4.26908C206.698 4.37278 206.867 4.36944 207.041 4.3494C207.272 4.32424 207.499 4.29895 207.684 4.44081C207.721 4.4711 207.778 4.51419 207.821 4.51335C208.11 4.50484 208.403 4.50128 208.687 4.46606C208.972 4.43084 209.099 4.58502 209.288 4.66436C209.578 4.64383 209.872 4.62342 210.163 4.60289C210.219 4.59777 210.287 4.57862 210.336 4.59248C210.54 4.6507 210.648 4.83549 210.937 4.79078C211.104 4.76567 211.284 4.76273 211.457 4.76193C211.503 4.76122 211.56 4.80431 211.589 4.83675C211.606 4.85423 211.585 4.89926 211.563 4.92252C211.495 4.9875 211.414 5.04716 211.353 5.1148C211.345 5.12416 211.409 5.16991 211.447 5.19059C211.539 5.2374 211.649 5.23426 211.776 5.21973C211.887 5.20696 211.997 5.24481 212.07 5.31983C212.1 5.34986 212.086 5.39755 212.009 5.55377C212.001 5.6716 212.079 5.62144 212.108 5.5454C212.154 5.43623 212.082 5.39741 211.938 5.4523C211.837 5.49192 211.783 5.55262 211.805 5.60403C211.817 5.631 211.882 5.66715 212.009 5.55377C212.328 5.42101 212.561 5.40321 212.795 5.38539C212.855 5.3804 212.927 5.35895 212.969 5.37495C213.116 5.43829 213.252 5.51327 213.396 5.58369C213.566 5.57554 213.726 5.54534 213.885 5.64527C214.109 5.78616 214.12 5.77454 214.347 5.75646C214.464 5.74635 214.581 5.73866 214.698 5.73096C214.815 5.72325 214.904 5.76271 215.002 5.82181C215.202 5.94255 215.22 5.94319 215.367 5.7944C215.454 5.70362 215.512 5.67446 215.611 5.72154C215.94 5.88078 215.943 5.89053 216.234 5.85797C216.475 5.8308 216.701 5.82955 216.868 5.97316C216.981 6.07379 217.021 6.0536 217.123 5.95613C217.393 5.69864 217.509 5.70775 217.971 5.91779C218.187 6.0174 218.422 5.92733 218.648 5.92368C218.838 5.92113 218.968 5.9838 218.973 6.13581C218.977 6.22999 219.004 6.29851 219.129 6.33448C219.177 6.34833 219.236 6.36738 219.286 6.3644C219.579 6.34641 219.87 6.32346 220.164 6.30066C220.313 6.28932 220.401 6.17933 220.382 6.0292C220.361 5.86931 220.421 5.81367 220.635 5.77583C220.763 5.75409 220.865 5.76272 220.964 5.8098C221.073 5.86208 221.039 5.90418 220.935 5.98708C220.686 6.18993 220.706 6.3208 220.999 6.47874C221.101 6.53316 221.182 6.58201 221.202 6.65747C221.214 6.69646 221.197 6.74644 221.226 6.77647C221.388 6.94399 221.621 7.0563 221.883 7.14319C222.144 7.08782 222.313 7.20255 222.505 7.29644C222.655 7.36953 222.842 7.31863 223.008 7.30074C223.196 7.28122 223.35 7.3062 223.478 7.40015C223.569 7.4662 223.665 7.49871 223.782 7.491C224.016 7.47319 224.253 7.46513 224.484 7.43516C224.683 7.40882 224.828 7.46241 224.945 7.54875C225.094 7.65791 225.27 7.59457 225.431 7.61502C225.648 7.63996 225.744 7.85802 226.032 7.81091C226.203 7.78352 226.38 7.77805 226.556 7.77497C226.602 7.77426 226.656 7.81724 226.692 7.84754C226.87 7.98673 227.089 7.98762 227.33 7.95804C227.497 7.93774 227.661 7.91972 227.817 8.01712C228.074 8.18096 228.361 8.32662 228.633 8.47896C228.665 8.59101 228.628 8.71979 228.825 8.79217C228.928 8.82976 229.023 8.88394 229.101 8.94226C229.195 9.01085 229.285 9.03108 229.413 9.01896C229.644 8.9938 229.883 8.99546 230.111 8.96055C230.321 8.9298 230.446 9.01401 230.568 9.09327C230.666 9.15718 230.759 9.18955 230.885 9.15085C231.014 9.11468 231.104 9.14452 231.202 9.21324C231.34 9.30758 231.352 9.29837 231.828 9.34261C231.877 9.34685 231.935 9.38512 231.961 9.41743C231.974 9.43478 231.939 9.48173 231.913 9.50486C231.88 9.53254 231.828 9.56435 231.782 9.56986C231.257 9.61302 230.73 9.64883 230.206 9.69199C230.152 9.69724 230.095 9.712 230.055 9.73461C230.011 9.75949 229.956 9.79357 229.954 9.82724C229.952 9.85129 230.021 9.88277 230.069 9.90143C230.22 9.96249 230.408 9.88514 230.555 9.95329C230.655 9.99796 230.736 10.0588 230.835 10.1011C230.876 10.1195 230.943 10.1196 230.996 10.1167C231.173 10.1064 231.347 10.0888 231.524 10.0809C231.573 10.0803 231.628 10.1065 231.672 10.1274C232.001 10.2843 232.001 10.2842 232.295 10.2638C232.411 10.2561 232.537 10.2246 232.645 10.2431C232.75 10.2615 232.837 10.3298 232.929 10.3742C233.121 10.4681 233.302 10.5592 233.304 10.7473C233.306 10.8197 233.418 10.8865 233.534 10.8956C233.646 10.9046 233.767 10.8827 233.884 10.8726C234.16 10.8539 234.16 10.8539 234.506 11.0138C234.602 11.0583 234.707 11.0671 234.835 11.0477C234.885 11.0399 234.945 11.0518 234.997 11.0658C235.167 11.1083 235.164 11.1539 235.046 11.2363C234.879 11.3579 234.892 11.3704 235.329 11.4951C235.495 11.5423 235.62 11.6241 235.756 11.6966C235.978 11.8134 235.975 11.8132 235.814 11.9495C235.777 11.9794 235.743 12.0119 235.706 12.0443C235.598 12.1342 235.511 12.2322 235.299 12.234C235.066 12.235 234.832 12.2648 234.598 12.2827C234.371 12.3007 234.308 12.3562 234.319 12.5205C234.331 12.7186 234.375 12.7419 234.78 12.7546C234.896 12.7589 234.996 12.7819 235.08 12.8501C235.033 12.9255 234.952 12.9827 234.838 12.993C234.548 13.0183 234.254 13.0387 233.963 13.0593C233.73 13.0771 233.496 13.0949 233.262 13.1127C233.117 13.1242 233.017 13.2458 233.047 13.3867C233.063 13.4669 233.076 13.5469 233.088 13.6269C233.117 13.787 233.188 13.8307 233.424 13.8322C233.484 13.832 233.542 13.8149 233.598 13.8218C233.825 13.8471 233.921 14.0508 234.198 14.0201C234.429 13.9949 234.669 13.9966 234.896 13.9617C235.106 13.9309 235.217 14.0218 235.357 14.0921C235.405 14.1156 235.455 14.1632 235.497 14.1624C235.791 14.1468 236.084 14.1312 236.372 14.0961C236.507 14.0819 236.587 14.0993 236.689 14.1609C236.933 14.3098 236.94 14.3029 237.319 14.2736C237.596 14.2501 237.599 14.2551 237.941 14.4148C238.037 14.4594 238.143 14.4633 238.271 14.4488C238.437 14.4309 238.612 14.3988 238.782 14.4413C238.834 14.4529 238.899 14.4842 238.915 14.5161C238.924 14.5382 238.871 14.5892 238.828 14.6045C238.511 14.718 238.15 14.6829 237.809 14.7209C237.703 14.7314 237.6 14.6817 237.516 14.6135C237.429 14.5452 237.332 14.5151 237.212 14.5227C236.978 14.5405 236.741 14.5486 236.51 14.5785C236.311 14.6049 236.178 14.5445 236.045 14.4648C236.001 14.4391 235.951 14.3914 235.905 14.3921C235.382 14.4208 234.855 14.4495 234.334 14.4976C234.124 14.5187 234.01 14.4373 233.873 14.3671C233.825 14.3437 233.779 14.2962 233.733 14.2969C233.557 14.2999 233.383 14.32 233.205 14.3327C232.561 14.381 231.92 14.4295 231.275 14.473C231.233 14.4762 231.183 14.4237 231.135 14.4003C231.043 14.3535 230.947 14.3089 230.852 14.2644C230.674 14.2771 230.501 14.2947 230.324 14.3026C230.197 14.3075 230.082 14.337 230.059 14.4277C230.044 14.4874 230.157 14.547 230.28 14.5468C230.4 14.5465 230.521 14.522 230.618 14.557C231.097 14.729 231.097 14.7315 231.405 14.7116C231.674 14.6927 231.647 14.6676 231.874 14.8086C231.973 14.8701 232.062 14.9072 232.179 14.8971C232.469 14.8741 232.763 14.8513 233.057 14.8333C233.103 14.8302 233.161 14.8565 233.206 14.8774C233.541 15.0345 233.541 15.0393 233.828 15.0139C234.204 14.9844 234.219 14.9729 234.459 15.1289C234.625 15.2363 234.787 15.1725 234.953 15.1738C235.137 15.2747 235.339 15.3665 235.505 15.4788C235.701 15.6114 235.917 15.5977 236.151 15.5703C236.325 15.5502 236.494 15.5469 236.629 15.6507C236.757 15.7471 236.918 15.7627 237.102 15.7455C237.269 15.73 237.441 15.6906 237.609 15.7499C237.654 15.766 237.722 15.8047 237.717 15.8262C237.712 15.8597 237.663 15.9061 237.616 15.9189C237.286 16.0054 236.931 15.9898 236.587 16.0228C236.541 16.0283 236.483 15.9996 236.439 15.9787C236.343 15.9317 236.251 15.8777 236.159 15.8285C235.986 15.8365 235.81 15.8348 235.639 15.8574C235.508 15.8742 235.409 15.8681 235.318 15.8069C235.233 15.7507 235.143 15.6822 235.038 15.6615C234.934 15.6407 234.809 15.6722 234.692 15.6823C234.575 15.6924 234.441 15.6802 234.348 15.7153C234.254 15.7504 234.192 15.8324 234.128 15.8975C234.056 15.9696 233.963 15.9903 233.829 15.9925C233.706 15.9951 233.608 15.9819 233.521 15.9111C233.484 15.8808 233.432 15.8572 233.381 15.836C233.333 15.8173 233.278 15.7888 233.232 15.7919C232.705 15.8277 232.18 15.8685 231.653 15.9067C231.391 15.9259 231.394 15.926 230.862 15.764C230.813 15.7501 230.755 15.7311 230.705 15.734C230.411 15.752 230.121 15.775 229.827 15.7978C229.529 15.8205 229.533 15.8158 229.04 15.6456C228.95 15.6133 228.814 15.6468 228.705 15.638C228.478 15.6174 228.378 15.4113 228.108 15.4398C227.877 15.465 227.638 15.4633 227.406 15.4981C227.197 15.5288 227.082 15.4402 226.946 15.3701C226.898 15.3466 226.848 15.2965 226.806 15.2998C226.278 15.3332 225.754 15.3739 225.057 15.3552C224.885 15.3488 224.959 15.4022 225.071 15.4232C225.231 15.4557 225.287 15.4072 225.205 15.3077C225.146 15.238 225.057 15.2009 224.982 15.215C224.942 15.2232 224.89 15.2671 225.057 15.3552C225.234 15.4534 225.221 15.5035 225.25 15.5335C225.323 15.6062 225.431 15.6391 225.544 15.6336C225.721 15.6233 225.894 15.6057 226.071 15.5978C226.121 15.5948 226.179 15.6139 226.224 15.6348C226.601 15.7983 226.604 15.8081 227.019 15.7657C227.151 15.7537 227.245 15.7572 227.345 15.8067C227.481 15.8745 227.576 15.984 227.793 15.9584C228.081 15.9233 228.374 15.9077 228.668 15.8921C228.714 15.889 228.76 15.9341 228.812 15.9553C228.952 16.0184 229.051 16.1305 229.269 16.0928C229.436 16.0629 229.616 16.0599 229.792 16.0592C229.838 16.0585 229.906 16.0996 229.925 16.1317C229.964 16.1886 229.907 16.2515 229.785 16.2928C229.734 16.3102 229.668 16.3029 229.611 16.308C229.377 16.3258 229.143 16.346 228.91 16.359C228.786 16.3665 228.667 16.3982 228.648 16.4867C228.633 16.5464 228.757 16.604 228.876 16.6037C229.053 16.603 229.23 16.5903 229.401 16.5653C229.703 16.5235 229.962 16.5476 230.195 16.7081C230.361 16.8204 230.353 16.7815 230.516 17.1009C230.556 17.182 230.693 17.1943 230.813 17.1939C231.102 17.1926 231.233 17.2337 231.204 17.3073C231.166 17.3975 231.063 17.4225 230.932 17.4297C230.698 17.4403 230.464 17.463 230.23 17.4808C230.174 17.4859 230.11 17.498 230.057 17.4912C230.005 17.4844 229.957 17.4537 229.913 17.4304C229.817 17.3811 229.737 17.3082 229.633 17.2874C229.529 17.2667 229.403 17.2981 229.286 17.3083C229.169 17.316 229.044 17.3475 228.94 17.3267C228.835 17.3059 228.752 17.2305 228.66 17.1837C228.615 17.1604 228.561 17.1246 228.515 17.1253C228.282 17.1359 228.048 17.1586 227.814 17.174C227.527 17.1946 227.527 17.1946 227.192 17.0327C227.097 16.9858 226.994 16.9844 226.863 16.9988C226.579 17.0268 226.576 17.0194 226.072 16.8609C226.023 16.8446 225.965 16.8256 225.915 16.8309C225.387 16.8668 224.863 16.9075 224.339 16.9458C223.889 16.9797 223.889 16.9797 223.628 17.2111C223.433 17.3822 223.43 17.3821 223.604 17.4705C223.744 17.5432 223.868 17.6466 224.024 17.6886C224.169 17.7277 224.359 17.6263 224.514 17.743C224.591 17.8013 224.693 17.8653 224.794 17.8787C224.955 17.8968 225.132 17.8334 225.28 17.945C225.354 18.0008 225.467 18.0604 225.565 18.0665C225.737 18.0777 225.915 18.0458 226.089 18.0353C226.142 18.0325 226.201 18.0347 226.25 18.0486C226.302 18.065 226.345 18.0955 226.39 18.1213C226.525 18.2083 226.674 18.2524 226.859 18.2183C227.163 18.1621 227.428 18.2057 227.65 18.3682C227.68 18.391 227.757 18.3963 227.807 18.3885C227.935 18.3692 228.045 18.3708 228.137 18.4201C228.174 18.4407 228.228 18.4765 228.22 18.4979C228.207 18.5335 228.162 18.5801 228.115 18.5904C227.779 18.6598 227.424 18.6563 227.08 18.6869C227.034 18.69 226.98 18.6566 226.935 18.6333C226.839 18.5863 226.76 18.511 226.655 18.4903C226.551 18.4695 226.426 18.4962 226.309 18.5039C226.192 18.5116 226.067 18.5431 225.962 18.5248C225.858 18.504 225.763 18.4402 225.682 18.3842C225.587 18.3204 225.493 18.3097 225.361 18.3289C225.19 18.3539 225.014 18.3521 224.841 18.3625C224.749 18.3133 224.657 18.2593 224.561 18.2123C224.517 18.189 224.463 18.1604 224.413 18.161C224.18 18.1716 223.946 18.1918 223.712 18.2096C223.478 18.2275 223.478 18.2275 223.094 18.0637C223.049 18.0452 222.991 18.0237 222.941 18.0267C222.647 18.0447 222.357 18.07 222.063 18.088C221.95 18.0959 221.85 18.0584 221.763 17.9901C221.679 17.9219 221.576 17.8819 221.466 17.8899C220.998 17.9231 220.531 17.9539 220.063 17.9968C219.875 18.0139 219.718 17.9864 219.597 17.8951C219.456 17.791 219.289 17.8089 219.116 17.8217C218.722 17.8553 218.719 17.8528 218.477 17.7208C218.429 17.6949 218.383 17.6474 218.337 17.6481C217.93 17.6692 217.52 17.6876 217.116 17.7304C216.903 17.7539 216.795 17.6655 216.659 17.5978C216.611 17.5743 216.561 17.5266 216.519 17.5299C216.225 17.5455 215.932 17.5587 215.644 17.5962C215.356 17.6336 215.261 17.406 215.046 17.4004C214.754 17.3919 214.462 17.4365 214.172 17.4595C213.938 17.4773 213.704 17.4951 213.471 17.5129C213.237 17.5307 213.003 17.5437 212.769 17.5663C212.645 17.5786 212.555 17.5535 212.457 17.4896C212.332 17.4054 212.181 17.3372 212.045 17.2598C211.837 17.1484 211.837 17.1484 211.575 17.1676C211.518 17.1727 211.458 17.1753 211.401 17.1804C210.973 17.2175 210.973 17.2127 210.441 17.041C210.417 17.0329 210.352 17.057 210.326 17.0753C210.248 17.1351 210.177 17.1999 210.106 17.2624C210.014 17.2204 209.899 17.1944 209.839 17.1368C209.67 16.9738 209.375 17.1773 209.202 17.0166C209.139 16.9564 209.026 16.9016 208.921 16.8833C208.813 16.8648 208.688 16.8939 208.574 16.9041C208.28 16.9293 208.28 16.9269 208.017 17.1316C207.884 17.2327 207.702 17.2067 207.535 17.2246C207.361 17.2446 207.195 17.2529 207.057 17.149C206.933 17.0551 206.776 17.0276 206.588 17.0495C206.357 17.0771 206.12 17.09 205.886 17.103C205.837 17.106 205.778 17.0917 205.729 17.0755C205.2 16.9136 205.2 16.9112 204.938 16.9328C204.821 16.9429 204.701 16.9432 204.587 16.9607C204.395 16.9921 204.254 16.9362 204.122 16.8542C204.078 16.8284 204.028 16.7808 203.982 16.7815C203.749 16.7849 203.519 16.798 203.289 16.8111C203.112 16.8214 202.936 16.8245 202.765 16.8519C202.48 16.8967 202.353 16.7353 202.164 16.656C201.874 16.6765 201.58 16.6873 201.289 16.7199C201.154 16.7341 201.067 16.7237 200.969 16.6622C200.843 16.5852 200.729 16.499 200.516 16.5272C200.231 16.5648 199.935 16.5707 199.644 16.5888C199.456 16.507 199.325 16.3503 199.043 16.3953C198.873 16.4227 198.693 16.4232 198.519 16.436C198.285 16.4538 198.052 16.4693 197.818 16.4895C197.566 16.5091 197.57 16.502 197.196 16.3458C196.98 16.2534 196.745 16.3387 196.519 16.3448C196.343 16.3502 196.248 16.4576 196.281 16.601C196.314 16.7445 196.212 16.8516 196.049 16.8648C195.642 16.8954 195.231 16.9283 194.824 16.9542C194.774 16.9571 194.715 16.9381 194.671 16.9195C194.248 16.752 194.248 16.7544 194.053 16.7688C193.762 16.7942 193.466 16.8024 193.178 16.8375C192.979 16.8614 192.838 16.8056 192.717 16.7191C192.622 16.6529 192.532 16.6351 192.404 16.6448C191.001 16.7541 189.599 16.8514 188.199 16.9656C187.99 16.982 187.875 16.9078 187.739 16.8376C187.691 16.8142 187.648 16.7668 187.599 16.7649C187.483 16.7606 187.365 16.778 187.248 16.7881C186.724 16.8264 186.199 16.8768 185.673 16.9006C185.45 16.9116 185.383 17.02 185.282 17.1078C185.204 17.1748 185.118 17.2005 184.987 17.2053C184.86 17.2102 184.769 17.1948 184.675 17.1286C184.553 17.0421 184.412 16.9862 184.213 17.0126C183.982 17.0425 183.749 17.0508 183.512 17.0684C183.391 17.076 183.297 17.1159 183.253 17.201C183.245 17.2152 183.316 17.254 183.357 17.2772C183.493 17.3546 183.622 17.4437 183.777 17.5001C183.935 17.5566 184.115 17.5054 184.284 17.4973C184.345 17.4947 184.402 17.4824 184.458 17.4869C184.51 17.4912 184.573 17.5056 184.61 17.5287C184.786 17.6437 184.975 17.7255 185.232 17.67C185.448 17.7093 185.548 17.9131 185.829 17.8705C186 17.8456 186.177 17.8377 186.353 17.8322C186.399 17.8315 186.446 17.8766 186.494 17.9001C186.63 17.9654 186.737 18.0658 186.95 18.0328C187.178 17.9979 187.418 17.9995 187.649 17.9744C187.776 17.9599 187.867 17.9801 187.961 18.0463C188.083 18.1303 188.223 18.1958 188.423 18.1646C188.594 18.1373 188.773 18.1367 188.947 18.1215C189.174 18.1034 189.174 18.1058 189.565 18.2698C189.61 18.2884 189.668 18.3098 189.718 18.3068C190.011 18.2888 190.302 18.2635 190.596 18.2455C190.709 18.2377 190.816 18.273 190.889 18.3456C190.919 18.3756 190.905 18.4233 190.913 18.4646C190.329 18.508 189.745 18.5417 189.163 18.5996C188.943 18.6227 188.851 18.5205 188.71 18.4598C188.662 18.4387 188.612 18.3959 188.566 18.399C188.156 18.4247 187.749 18.4529 187.341 18.4908C187.213 18.5029 187.119 18.4898 187.028 18.4165C186.797 18.2223 186.496 18.3123 186.22 18.3286C186.007 18.3399 185.936 18.412 185.95 18.5716C185.97 18.7604 186.093 18.8228 186.419 18.8012C186.535 18.7935 186.652 18.7809 186.769 18.7756C186.882 18.7702 186.982 18.8053 187.07 18.8736C187.153 18.9418 187.257 18.9794 187.366 18.9738C187.6 18.9608 187.837 18.9479 188.064 18.9202C188.252 18.8983 188.406 18.9281 188.53 19.0219C188.668 19.1259 188.838 19.1105 189.008 19.0951C189.405 19.0617 189.409 19.0643 189.647 19.1936C189.695 19.2195 189.741 19.2671 189.787 19.2663C190.194 19.2453 190.604 19.2292 191.005 19.1863C191.214 19.1652 191.329 19.2466 191.462 19.3142C191.51 19.3377 191.556 19.3876 191.602 19.3845C191.895 19.3689 192.189 19.3533 192.477 19.3182C192.612 19.3015 192.692 19.3189 192.797 19.3807C193.048 19.5323 193.056 19.5277 193.428 19.4958C193.541 19.4855 193.666 19.4637 193.77 19.4868C193.875 19.51 193.955 19.5829 194.05 19.6298C194.095 19.6508 194.149 19.6793 194.199 19.6763C194.432 19.6657 194.666 19.6455 194.9 19.6277C195.12 19.6093 195.119 19.6118 195.518 19.776C195.679 19.8447 195.855 19.7982 196.021 19.7851C196.202 19.7701 196.364 19.7762 196.495 19.875C196.626 19.9739 196.792 19.9752 196.969 19.9625C197.135 19.9495 197.308 19.9029 197.472 19.9741C197.85 20.1375 197.849 20.1399 198.09 20.12C198.441 20.092 198.788 20.0664 199.142 20.0434C199.188 20.0403 199.246 20.0714 199.291 20.0923C199.386 20.1393 199.466 20.2145 199.571 20.2353C199.675 20.2584 199.8 20.2342 199.913 20.2239C200.278 20.1917 200.304 20.1758 200.537 20.3435C200.732 20.481 200.997 20.3028 201.178 20.459C201.281 20.5472 201.425 20.62 201.631 20.5867C201.802 20.5594 201.979 20.5563 202.156 20.5436C202.436 20.5227 202.435 20.5251 202.778 20.6824C202.822 20.7034 202.881 20.7296 202.927 20.7265C203.16 20.7159 203.397 20.7079 203.625 20.673C203.892 20.6323 204.054 20.7299 204.246 20.8262C204.396 20.9017 204.583 20.8508 204.749 20.8329C204.93 20.8155 205.092 20.8287 205.219 20.9275C205.354 21.0289 205.52 21.0231 205.697 21.0104C205.863 20.9997 206.036 20.9506 206.2 21.0243C206.553 21.1868 206.553 21.1868 206.818 21.1678C207.052 21.15 207.286 21.1297 207.519 21.1191C207.565 21.116 207.62 21.1494 207.664 21.1727C207.76 21.2197 207.84 21.295 207.944 21.3157C208.048 21.3365 208.174 21.3098 208.29 21.3021C208.407 21.2944 208.533 21.2629 208.637 21.2812C208.742 21.2996 208.836 21.3634 208.917 21.4194C209.012 21.4856 209.103 21.4962 209.238 21.4771C209.409 21.4522 209.585 21.4515 209.758 21.4411C209.85 21.4903 209.946 21.5396 210.034 21.5935C210.126 21.65 210.228 21.6489 210.359 21.637C210.796 21.5953 210.799 21.6027 211.151 21.7653C211.312 21.8387 211.488 21.7898 211.655 21.7791C211.832 21.7665 211.997 21.763 212.128 21.8643C212.256 21.9606 212.421 21.9788 212.598 21.9565C212.712 21.9414 212.833 21.9339 212.949 21.931C213.002 21.9305 213.065 21.9425 213.102 21.9632C213.282 22.0711 213.459 22.1693 213.72 22.1139C213.944 22.1415 214.044 22.3429 214.317 22.3145C214.548 22.2893 214.787 22.291 215.015 22.2561C215.225 22.2253 215.368 22.2982 215.469 22.3863C215.649 22.5424 215.929 22.3504 216.11 22.5041C216.213 22.5923 216.35 22.6649 216.563 22.6367C216.798 22.6068 216.868 22.6601 216.925 22.814C216.959 22.902 216.947 22.9715 216.872 23.0362C216.798 23.1034 216.721 23.0885 216.614 23.0049C216.489 22.9111 216.335 22.8885 216.148 22.9008C215.964 22.9132 215.859 22.784 215.711 22.7303C215.563 22.6742 215.378 22.7517 215.224 22.6809C214.861 22.5155 214.861 22.5155 214.606 22.5349C214.433 22.5478 214.253 22.5507 214.082 22.5781C213.879 22.6115 213.753 22.5321 213.62 22.4597C213.573 22.4338 213.526 22.3863 213.484 22.3871C213.077 22.4081 212.667 22.4266 212.262 22.4718C212.049 22.4953 211.942 22.4045 211.806 22.3392C211.758 22.3157 211.708 22.2704 211.665 22.2737C211.315 22.2944 210.968 22.3249 210.617 22.3528C210.546 22.4152 210.468 22.475 210.4 22.5424C210.329 22.612 210.235 22.6399 210.102 22.6325C209.88 22.6243 209.656 22.7172 209.442 22.5815C209.222 22.4431 209.204 22.4497 208.981 22.4727C208.697 22.5031 208.398 22.4824 208.129 22.5663C208.082 22.5815 208.03 22.6253 208.028 22.659C208.023 22.6805 208.095 22.7145 208.139 22.7354C208.29 22.7989 208.475 22.7214 208.626 22.7873C208.725 22.8296 208.806 22.8904 208.905 22.9351C208.946 22.9535 209.01 22.9534 209.066 22.9531C209.126 22.9529 209.184 22.9382 209.24 22.9427C209.292 22.9471 209.348 22.9636 209.388 22.9868C209.576 23.0854 209.775 23.1771 209.94 23.2917C210.102 23.4038 210.265 23.3376 210.434 23.339C211.098 23.5325 211.098 23.5349 211.555 23.4989C211.669 23.491 211.786 23.4809 211.902 23.4877C211.951 23.4895 211.994 23.5344 212.041 23.5603C212.178 23.6377 212.307 23.7076 212.506 23.6765C212.677 23.6491 212.857 23.6485 213.031 23.6333C213.265 23.6155 213.265 23.6155 213.649 23.7816C213.745 23.8238 213.851 23.8229 213.979 23.8084C214.089 23.7956 214.199 23.8358 214.272 23.9085C214.302 23.9385 214.288 23.9862 214.296 24.0275C213.945 24.053 213.592 24.0664 213.251 24.1115C213.03 24.1395 212.938 24.0324 212.798 23.9717C212.75 23.9507 212.7 23.9078 212.654 23.9109C212.307 23.9342 211.959 23.9622 211.612 23.9975C211.569 24.0007 211.513 24.0541 211.507 24.0876C211.496 24.1499 211.58 24.2132 211.707 24.2156C211.876 24.2194 212.044 24.1847 212.189 24.2889C212.31 24.3802 212.466 24.4246 212.655 24.393C212.768 24.3756 212.888 24.38 213.002 24.365C213.304 24.3184 213.574 24.3405 213.789 24.5124C213.959 24.5621 214.13 24.5275 214.297 24.512C214.421 24.4997 214.541 24.4873 214.627 24.5363C214.807 24.6394 214.984 24.7424 215.244 24.687C215.518 24.7647 215.72 24.9144 215.945 25.0385C216.05 25.0978 216.132 25.1322 216.261 25.1009C216.315 25.0884 216.378 25.0908 216.435 25.0856C216.552 25.0779 216.677 25.0464 216.782 25.0648C216.886 25.0855 216.97 25.1586 217.062 25.2054C217.106 25.2287 217.157 25.2667 217.203 25.266C217.379 25.2606 217.553 25.2429 217.727 25.2301C217.9 25.2197 218.073 25.2093 218.247 25.1988C218.387 25.2667 218.531 25.3347 218.671 25.4026C218.905 25.3848 219.138 25.367 219.369 25.3514C219.627 25.3321 219.627 25.3345 219.987 25.4974C220.148 25.5708 220.326 25.5341 220.487 25.5087C220.753 25.468 220.924 25.566 221.104 25.6691C221.141 25.6898 221.211 25.7044 221.257 25.6965C221.442 25.6696 221.599 25.7019 221.727 25.7959C221.818 25.8619 221.911 25.8944 222.028 25.8866C222.435 25.856 222.842 25.8229 223.249 25.7971C223.299 25.7941 223.354 25.8179 223.398 25.8388C223.748 25.9988 223.751 26.0062 224.017 25.9775C224.255 25.9526 224.474 25.9463 224.652 26.0855C224.688 26.1158 224.746 26.1589 224.788 26.1581C225.078 26.1447 225.371 26.1291 225.659 26.0989C225.79 26.0845 225.881 26.0951 225.98 26.1542C226.105 26.2288 226.216 26.3173 226.432 26.294C227.032 26.2271 227.035 26.2416 227.728 26.4337C227.776 26.4476 227.844 26.4308 227.901 26.4233C228.022 26.4037 228.108 26.4407 228.21 26.4999C228.438 26.6337 228.445 26.6267 228.672 26.6087C228.846 26.5934 229.025 26.5953 229.196 26.5655C229.46 26.5223 229.626 26.6225 229.814 26.7187C229.964 26.7941 230.147 26.7431 230.314 26.7276C230.495 26.7102 230.656 26.7234 230.784 26.8198C230.871 26.8857 230.968 26.9231 231.085 26.9154C231.492 26.8871 231.899 26.8541 232.306 26.8258C232.356 26.8228 232.415 26.8443 232.459 26.8628C232.851 27.0268 232.85 27.0341 233.251 26.9935C233.379 26.9814 233.485 26.9805 233.576 27.0346C233.665 27.0861 233.76 27.1354 233.852 27.1846C234.026 27.1742 234.202 27.1759 234.372 27.1534C234.504 27.1366 234.595 27.1496 234.693 27.2039C234.823 27.2738 234.928 27.391 235.143 27.3435C235.253 27.3211 235.38 27.333 235.49 27.3131C235.622 27.2866 235.709 27.3091 235.807 27.3755C235.929 27.4547 236.054 27.5365 236.26 27.5056C236.488 27.4707 236.728 27.4724 236.959 27.4472C237.086 27.4327 237.173 27.4552 237.271 27.5215C237.393 27.6056 237.534 27.6614 237.733 27.6375C238.137 27.5923 238.14 27.6044 238.521 27.7705C238.617 27.8126 238.723 27.8117 238.85 27.7972C238.96 27.7844 239.071 27.8247 239.144 27.8973C239.213 27.977 239.202 28.0248 239.207 28.0659ZM209.253 5.21263C209.136 5.22033 209.019 5.23044 208.864 5.01495C208.855 4.97849 208.865 4.93548 208.843 4.90331C208.791 4.83629 208.706 4.78733 208.601 4.77619C208.411 4.75951 208.177 4.83274 208.177 4.8954C208.177 4.94843 208.234 4.99633 208.347 5.04394C208.395 5.0626 208.432 5.0929 208.477 5.11384C208.607 5.17412 208.705 5.28627 208.902 5.23816C208.877 5.08776 208.89 5.16296 208.902 5.23816C208.879 5.32888 208.928 5.39577 209.053 5.42693C209.087 5.43545 209.14 5.43259 209.169 5.41921C209.282 5.37037 209.304 5.2989 209.235 5.10592C209.219 5.13666 209.226 5.19234 209.257 5.20794C209.288 5.22355 209.366 5.21442 209.405 5.19902C209.507 5.157 209.56 5.09871 209.539 5.0473C209.526 5.02032 209.461 4.98417 209.419 4.9826C209.345 4.97985 209.275 5.03027 209.253 5.21263ZM235.91 34.1572C235.651 34.1933 235.356 34.1655 235.094 34.2498C235.047 34.2649 234.998 34.3065 234.993 34.34C234.988 34.3615 235.056 34.3954 235.097 34.4138C235.19 34.4558 235.296 34.4477 235.42 34.4403C235.607 34.4304 235.709 34.545 235.85 34.6057C235.895 34.6242 235.954 34.6385 236.003 34.6355C236.29 34.6172 236.573 34.5965 236.86 34.5734C236.91 34.568 236.964 34.5531 237.007 34.5331C237.152 34.4686 237.141 34.4224 237.007 34.3644C236.86 34.301 236.747 34.2004 236.595 34.1489C236.377 34.0758 236.147 34.154 235.91 34.1572ZM215.827 35.1696C215.654 35.1825 215.484 35.1954 215.31 35.2083C215.253 35.2134 215.193 35.2135 215.14 35.2212C215.03 35.234 214.946 35.2815 214.888 35.3589C214.965 35.4244 215.061 35.4641 215.171 35.461C215.344 35.4529 215.515 35.428 215.687 35.4272C215.874 35.4245 215.976 35.5367 216.117 35.5974C216.162 35.616 216.218 35.6204 216.27 35.6248C216.53 35.6441 216.696 35.525 216.658 35.3476C216.632 35.2092 216.503 35.1225 216.341 35.1333C216.171 35.1439 215.997 35.1567 215.827 35.1696ZM237.34 30.6479C237.384 30.6086 237.432 30.5814 237.455 30.5461C237.527 30.4259 237.508 30.3336 237.398 30.2331C237.265 30.11 237.087 30.1829 236.928 30.1891C236.889 30.19 236.844 30.239 236.821 30.2694C236.805 30.2906 236.803 30.3363 236.823 30.3491C236.989 30.4517 237.166 30.5474 237.34 30.6479ZM207.286 22.4096C207.116 22.4226 206.942 22.4306 206.772 22.4508C206.729 22.4564 206.688 22.5007 206.661 22.531C206.612 22.587 206.656 22.6682 206.799 22.6808C206.964 22.6965 207.139 22.6621 207.313 22.6493C207.532 22.6333 207.668 22.5492 207.592 22.4692C207.519 22.3918 207.415 22.3735 207.286 22.4096ZM22.4995 10.3843C22.6128 10.3764 22.7295 10.3711 22.8431 10.3585C22.9497 10.3456 23.034 10.2957 23.0918 10.2183C23.0079 10.1525 22.9115 10.1152 22.802 10.1183C22.6288 10.1263 22.4588 10.1393 22.2884 10.1571C22.182 10.1676 22.0767 10.2167 22.0469 10.2975C22.0183 10.3591 22.2515 10.404 22.4995 10.3843ZM192.765 16.3473C192.809 16.3706 192.852 16.4156 192.898 16.4173C193.01 16.4215 193.127 16.4114 193.235 16.3913C193.281 16.3834 193.319 16.3414 193.342 16.3085C193.357 16.2874 193.356 16.2488 193.337 16.2288C193.242 16.1096 192.831 16.1353 192.756 16.265C192.748 16.2888 192.763 16.3207 192.765 16.3473ZM182.51 2.76668C182.518 2.80554 182.519 2.84414 182.53 2.88314C182.554 2.95633 182.628 3.01212 182.738 3.05237C182.83 2.99553 182.88 2.92991 182.881 2.85764C182.88 2.81904 182.872 2.78014 182.86 2.74115C182.837 2.66796 182.763 2.6122 182.653 2.57194C182.561 2.62638 182.514 2.69213 182.51 2.76668ZM245.101 36.6781C245.068 36.7082 245.034 36.7383 244.997 36.7658C245.088 36.8391 245.174 36.864 245.243 36.828C245.287 36.8055 245.314 36.7704 245.348 36.7403C245.257 36.667 245.174 36.6447 245.101 36.6781ZM242.893 36.9238C242.937 36.9471 242.978 36.9775 243.026 36.9938C243.106 37.0209 243.182 36.9827 243.244 36.8982C243.199 36.8749 243.159 36.8445 243.111 36.8282C243.031 36.8011 242.955 36.8393 242.893 36.9238ZM244.307 36.5353C244.278 36.5921 244.325 36.642 244.452 36.6877C244.486 36.6576 244.53 36.6303 244.553 36.5975C244.592 36.5435 244.535 36.4907 244.411 36.4476C244.374 36.4751 244.34 36.5052 244.307 36.5353ZM237.048 33.6669C237.02 33.7237 237.066 33.7736 237.194 33.8193C237.227 33.7892 237.271 33.7619 237.295 33.7291C237.333 33.6751 237.277 33.6223 237.153 33.5792C237.116 33.6067 237.082 33.6368 237.048 33.6669ZM228.02 16.2753C227.986 16.3054 227.952 16.3355 227.915 16.363C228.006 16.4363 228.092 16.4612 228.162 16.4252C228.205 16.4027 228.232 16.3676 228.266 16.3375C228.175 16.2642 228.092 16.2419 228.02 16.2753ZM218.907 6.88782C218.99 6.90779 219.063 6.87675 219.128 6.79001C219.084 6.76666 219.043 6.73623 218.995 6.71997C218.916 6.69292 218.839 6.73106 218.778 6.81554C218.822 6.84129 218.866 6.8646 218.907 6.88782ZM213.798 6.13133C213.764 6.16141 213.731 6.1915 213.694 6.21904C213.784 6.29231 213.871 6.31722 213.94 6.28123C213.984 6.25875 214.011 6.2236 214.044 6.19351C213.954 6.12025 213.871 6.10028 213.798 6.13133ZM179.049 2.63554C179.016 2.66562 178.982 2.6957 178.945 2.72325C179.036 2.79652 179.122 2.82142 179.191 2.78544C179.235 2.76296 179.262 2.7278 179.296 2.69772C179.205 2.62445 179.122 2.60449 179.049 2.63554ZM4.08189 15.737C4.03755 15.7137 3.99326 15.6903 3.95259 15.6647C3.84646 15.7259 3.81099 15.7848 3.86434 15.8326C3.89767 15.8627 3.94931 15.8815 3.99364 15.9049C4.10328 15.8439 4.13157 15.7871 4.08189 15.737Z" fill="#A4CF69"/>
</svg>
