<svg width="328" height="63" viewBox="0 0 328 63" fill="none" xmlns="http://www.w3.org/2000/svg">
<path d="M327.468 28.1576V23.0529H321.201V15.117L320.99 15.1827L315.102 17.0045L314.986 17.0401V23.0532H305.694V19.7034C305.694 18.1436 306.039 16.95 306.719 16.154C307.394 15.3675 308.359 14.9677 309.59 14.9677C310.475 14.9677 311.392 15.1785 312.314 15.5944L312.545 15.6988V10.3229L312.437 10.2825C311.576 9.96965 310.406 9.81213 308.955 9.81213C307.127 9.81213 305.466 10.2145 304.017 11.0119C302.568 11.8105 301.428 12.9505 300.629 14.3999C299.833 15.8476 299.429 17.5197 299.429 19.3701V23.0529H295.065V28.1576H299.429V49.6628H305.694V28.1576H314.986V41.8238C314.986 47.4522 317.611 50.3044 322.788 50.3044C323.639 50.3044 324.534 50.2036 325.449 50.0062C326.379 49.8035 327.013 49.601 327.386 49.3848L327.469 49.3354V44.1835L327.214 44.354C326.874 44.5831 326.45 44.7704 325.954 44.9096C325.455 45.0514 325.039 45.1225 324.716 45.1225C323.503 45.1225 322.606 44.792 322.05 44.1397C321.487 43.4815 321.201 42.3306 321.201 40.7206V28.1576H327.468ZM281.073 45.1233C278.799 45.1233 277.006 44.3607 275.743 42.8585C274.471 41.3487 273.827 39.1962 273.827 36.4613C273.827 33.6397 274.471 31.4313 275.743 29.8948C277.008 28.3685 278.783 27.5938 281.022 27.5938C283.195 27.5938 284.924 28.3337 286.163 29.794C287.408 31.262 288.039 33.4527 288.039 36.3072C288.039 39.1967 287.445 41.4164 286.274 42.9012C285.11 44.3747 283.361 45.1233 281.073 45.1233ZM281.352 22.4119C277.013 22.4119 273.567 23.6976 271.11 26.2334C268.655 28.7694 267.41 32.279 267.41 36.6655C267.41 40.8318 268.625 44.183 271.022 46.6244C273.419 49.0667 276.681 50.3038 280.717 50.3038C284.923 50.3038 288.3 49.0001 290.756 46.4292C293.212 43.8612 294.456 40.3848 294.456 36.1008C294.456 31.8693 293.288 28.4932 290.985 26.068C288.68 23.6417 285.439 22.4119 281.352 22.4119ZM257.308 22.4119C254.357 22.4119 251.916 23.1753 250.051 24.6806C248.175 26.1949 247.223 28.1809 247.223 30.5842C247.223 31.8334 247.428 32.9431 247.833 33.8843C248.239 34.8285 248.869 35.66 249.705 36.3577C250.535 37.0498 251.816 37.7748 253.513 38.5125C254.94 39.1063 256.004 39.6087 256.68 40.0046C257.341 40.3926 257.81 40.7826 258.075 41.1625C258.332 41.5343 258.463 42.0431 258.463 42.6709C258.463 44.4587 257.139 45.3286 254.415 45.3286C253.405 45.3286 252.253 45.1152 250.99 44.6945C249.737 44.2803 248.554 43.6736 247.483 42.8958L247.222 42.7071V48.8078L247.318 48.8527C248.204 49.2666 249.322 49.6156 250.639 49.8902C251.954 50.1651 253.149 50.3049 254.187 50.3049C257.389 50.3049 259.968 49.5378 261.85 48.0236C263.744 46.4989 264.703 44.466 264.703 41.9796C264.703 40.186 264.187 38.6478 263.168 37.4073C262.157 36.1769 260.402 35.0473 257.953 34.0488C256.003 33.257 254.753 32.5997 254.237 32.0951C253.74 31.6076 253.488 30.9183 253.488 30.0453C253.488 29.2715 253.799 28.6515 254.439 28.1495C255.083 27.6449 255.98 27.3883 257.105 27.3883C258.149 27.3883 259.217 27.555 260.279 27.8819C261.341 28.2087 262.273 28.6465 263.051 29.1819L263.307 29.3588V23.5718L263.209 23.5291C262.491 23.2177 261.544 22.9513 260.394 22.7351C259.25 22.5203 258.211 22.4119 257.308 22.4119ZM230.89 45.1233C228.616 45.1233 226.823 44.3607 225.559 42.8585C224.288 41.3487 223.645 39.1967 223.645 36.4613C223.645 33.6397 224.289 31.4313 225.561 29.8948C226.824 28.3685 228.599 27.5938 230.839 27.5938C233.011 27.5938 234.74 28.3337 235.979 29.794C237.225 31.262 237.856 33.4527 237.856 36.3072C237.856 39.1967 237.262 41.4164 236.09 42.9012C234.927 44.3747 233.178 45.1233 230.89 45.1233ZM231.169 22.4119C226.829 22.4119 223.383 23.6976 220.927 26.2334C218.472 28.7694 217.226 32.279 217.226 36.6655C217.226 40.8334 218.442 44.183 220.839 46.6244C223.236 49.0667 226.498 50.3038 230.534 50.3038C234.739 50.3038 238.118 49.0001 240.573 46.4292C243.029 43.8612 244.273 40.3848 244.273 36.1008C244.273 31.8693 243.105 28.4932 240.801 26.068C238.496 23.6417 235.255 22.4119 231.169 22.4119ZM207.716 27.6612V23.0529H201.527V49.6622H207.716V36.0505C207.716 33.736 208.235 31.8345 209.259 30.3983C210.269 28.9792 211.617 28.2601 213.261 28.2601C213.819 28.2601 214.444 28.353 215.122 28.537C215.793 28.7197 216.279 28.9183 216.565 29.1272L216.825 29.3178V23.0074L216.725 22.9639C216.149 22.7162 215.333 22.5913 214.302 22.5913C212.746 22.5913 211.355 23.0967 210.163 24.0918C209.116 24.9665 208.36 26.1657 207.782 27.6612H207.716ZM190.444 22.4119C187.604 22.4119 185.072 23.0276 182.918 24.2415C180.759 25.4581 179.09 27.1951 177.954 29.4037C176.823 31.6071 176.249 34.1808 176.249 37.051C176.249 39.5651 176.805 41.8724 177.906 43.9058C179.007 45.9426 180.565 47.5361 182.537 48.6413C184.506 49.7451 186.783 50.3047 189.303 50.3047C192.244 50.3047 194.755 49.71 196.769 48.5371L196.85 48.4899V42.7554L196.59 42.9475C195.678 43.6194 194.659 44.1557 193.562 44.5421C192.468 44.9282 191.471 45.1233 190.597 45.1233C188.168 45.1233 186.219 44.3548 184.803 42.8397C183.385 41.3226 182.666 39.1922 182.666 36.5116C182.666 33.8141 183.416 31.629 184.894 30.0167C186.367 28.4092 188.32 27.5938 190.699 27.5938C192.733 27.5938 194.715 28.2904 196.591 29.6663L196.85 29.8569V23.8147L196.766 23.767C196.061 23.3674 195.098 23.0375 193.903 22.7873C192.713 22.5377 191.549 22.4119 190.444 22.4119ZM171.986 23.0532H165.797V49.6622H171.986V23.0532ZM168.955 11.7176C167.937 11.7176 167.048 12.0683 166.318 12.7632C165.585 13.4601 165.214 14.3376 165.214 15.3731C165.214 16.3924 165.581 17.2538 166.307 17.9322C167.028 18.6086 167.919 18.9515 168.955 18.9515C169.991 18.9515 170.886 18.6086 171.616 17.9333C172.35 17.2538 172.723 16.3927 172.723 15.3731C172.723 14.3738 172.36 13.5053 171.646 12.7913C170.932 12.0786 170.027 11.7176 168.955 11.7176ZM153.513 21.0899V49.6622H159.829V12.5321H151.088L139.976 40.1113L129.193 12.5321H120.096V49.6619H126.031V21.0871H126.235L137.621 49.6622H142.101L153.31 21.0899H153.513Z" fill="#706D6E"/>
<path d="M29.5834 29.5708H0.46875V0.125244H29.5834V29.5708Z" fill="#F1511B"/>
<path d="M61.7293 29.5701H32.6152V0.124512H61.7293V29.5701Z" fill="#80CC28"/>
<path d="M29.5825 62.0927H0.46875V32.6475H29.5825V62.0927Z" fill="#00ADEF"/>
<path d="M61.7293 62.0927H32.6152V32.6475H61.7293V62.0927Z" fill="#FBBC09"/>
</svg>
