<svg width="283" height="71" viewBox="0 0 283 71" fill="none" xmlns="http://www.w3.org/2000/svg">
<path d="M92.2227 55.2906L95.7086 47.2402C99.4757 50.0355 104.48 51.489 109.427 51.489C113.082 51.489 115.387 50.0914 115.387 47.967C115.331 42.041 93.5158 46.6812 93.3472 31.8103C93.2909 24.263 100.038 18.4489 109.596 18.4489C115.275 18.4489 120.954 19.8465 125.002 23.0331L121.741 31.2512C118.03 28.9032 113.419 27.226 109.034 27.226C106.054 27.226 104.086 28.6237 104.086 30.4126C104.142 36.2268 126.126 33.0402 126.351 47.2402C126.351 54.9552 119.773 60.378 110.327 60.378C103.411 60.378 97.058 58.7567 92.2227 55.2906ZM225.982 44.3331C224.239 47.352 220.978 49.4205 217.211 49.4205C211.644 49.4205 207.146 44.9481 207.146 39.4134C207.146 33.8788 211.644 29.4063 217.211 29.4063C220.978 29.4063 224.239 31.4749 225.982 34.4938L235.596 29.1827C231.998 22.8095 225.082 18.4489 217.211 18.4489C205.572 18.4489 196.126 27.841 196.126 39.4134C196.126 50.9859 205.572 60.378 217.211 60.378C225.138 60.378 231.998 56.0733 235.596 49.6441L225.982 44.3331ZM131.187 1.06226H143.219V59.5953H131.187V1.06226ZM240.319 1.06226V59.5953H252.351V42.041L266.632 59.5953H282.038L263.877 38.7426L280.689 19.2875H265.958L252.351 35.4441V1.06226H240.319ZM178.978 44.4449C177.235 47.2961 173.636 49.4205 169.588 49.4205C164.022 49.4205 159.524 44.9481 159.524 39.4134C159.524 33.8788 164.022 29.4063 169.588 29.4063C173.636 29.4063 177.235 31.6426 178.978 34.5497V44.4449ZM178.978 19.2875V24.0394C177.01 20.741 172.118 18.4489 167.002 18.4489C156.431 18.4489 148.11 27.7292 148.11 39.3575C148.11 50.9859 156.431 60.378 167.002 60.378C172.118 60.378 177.01 58.0859 178.978 54.7874V59.5394H191.01V19.2875H178.978Z" fill="black"/>
<path d="M15.3688 44.3889C15.3688 48.47 12.0515 51.7685 7.94708 51.7685C3.84266 51.7685 0.525391 48.47 0.525391 44.3889C0.525391 40.3078 3.84266 37.0094 7.94708 37.0094H15.3688V44.3889ZM19.0796 44.3889C19.0796 40.3078 22.3969 37.0094 26.5013 37.0094C30.6057 37.0094 33.923 40.3078 33.923 44.3889V62.8377C33.923 66.9188 30.6057 70.2173 26.5013 70.2173C22.3969 70.2173 19.0796 66.9188 19.0796 62.8377V44.3889Z" fill="#E01E5A"/>
<path d="M26.5009 14.7591C22.3965 14.7591 19.0792 11.4606 19.0792 7.37953C19.0792 3.29842 22.3965 0 26.5009 0C30.6053 0 33.9226 3.29842 33.9226 7.37953V14.7591H26.5009ZM26.5009 18.5047C30.6053 18.5047 33.9226 21.8032 33.9226 25.8843C33.9226 29.9654 30.6053 33.2638 26.5009 33.2638H7.89044C3.78602 33.2638 0.46875 29.9654 0.46875 25.8843C0.46875 21.8032 3.78602 18.5047 7.89044 18.5047H26.5009Z" fill="#36C5F0"/>
<path d="M58.7124 25.8843C58.7124 21.8032 62.0297 18.5047 66.1341 18.5047C70.2385 18.5047 73.5558 21.8032 73.5558 25.8843C73.5558 29.9654 70.2385 33.2638 66.1341 33.2638H58.7124V25.8843ZM55.0016 25.8843C55.0016 29.9654 51.6843 33.2638 47.5799 33.2638C43.4755 33.2638 40.1582 29.9654 40.1582 25.8843V7.37953C40.1582 3.29842 43.4755 0 47.5799 0C51.6843 0 55.0016 3.29842 55.0016 7.37953V25.8843Z" fill="#2EB67D"/>
<path d="M47.5799 55.4582C51.6843 55.4582 55.0016 58.7566 55.0016 62.8377C55.0016 66.9188 51.6843 70.2173 47.5799 70.2173C43.4755 70.2173 40.1582 66.9188 40.1582 62.8377V55.4582H47.5799ZM47.5799 51.7685C43.4755 51.7685 40.1582 48.47 40.1582 44.3889C40.1582 40.3078 43.4755 37.0094 47.5799 37.0094H66.1903C70.2947 37.0094 73.612 40.3078 73.612 44.3889C73.612 48.47 70.2947 51.7685 66.1903 51.7685H47.5799Z" fill="#ECB22E"/>
</svg>
